<svg width="393" height="296" viewBox="0 0 393 296" fill="none" xmlns="http://www.w3.org/2000/svg">
<path d="M371.775 185.937C371.54 177.322 372.209 162.629 364.656 156.579C358.02 151.268 352.86 158.476 350.998 164.291C346.487 178.398 348.604 193.953 348.618 208.514C348.618 208.735 348.618 208.956 348.618 209.204C348.266 219.924 346.976 231.519 348.149 242.218C348.149 242.218 346.997 231.498 338.581 236.092C330.166 240.686 342.789 264.795 342.789 264.795C342.789 264.795 332.842 257.524 328.248 263.65C323.654 269.775 333.987 276.66 333.987 276.66C333.987 276.66 324.42 273.983 324.42 276.66C324.42 279.336 327.483 281.633 336.284 282.785H383.729C383.729 282.785 391.386 278.57 389.854 273.983C388.323 269.396 380.28 272.038 380.28 272.038C380.28 272.038 392.531 257.111 391.765 250.606C390.999 244.101 375.306 251.758 375.306 251.758C375.306 251.758 387.55 220.758 385.253 206.983C383.446 196.132 375.024 203.534 370.436 207.728C371.516 200.517 371.964 193.226 371.775 185.937Z" fill="#F9AB00" stroke="white" stroke-linecap="round" stroke-linejoin="round"/>
<path opacity="0.5" d="M371.775 185.937C371.54 177.322 372.209 162.629 364.656 156.579C358.02 151.268 352.86 158.476 350.998 164.291C346.487 178.398 348.604 193.953 348.618 208.514C348.618 208.735 348.618 208.956 348.618 209.204C348.266 219.924 346.976 231.519 348.149 242.218C348.149 242.218 346.997 231.498 338.581 236.092C330.166 240.686 342.789 264.795 342.789 264.795C342.789 264.795 332.842 257.524 328.248 263.65C323.654 269.775 333.987 276.66 333.987 276.66C333.987 276.66 324.42 273.983 324.42 276.66C324.42 279.336 327.483 281.633 336.284 282.785H383.729C383.729 282.785 391.386 278.57 389.854 273.983C388.323 269.396 380.28 272.038 380.28 272.038C380.28 272.038 392.531 257.111 391.765 250.606C390.999 244.101 375.306 251.758 375.306 251.758C375.306 251.758 387.55 220.758 385.253 206.983C383.446 196.132 375.024 203.534 370.436 207.728C371.516 200.517 371.964 193.226 371.775 185.937Z" fill="white"/>
<path d="M356.551 282.371L360 177.128" stroke="white" stroke-linecap="round" stroke-linejoin="round"/>
<path d="M358.467 238.362L376.45 221.524" stroke="white" stroke-linecap="round" stroke-linejoin="round"/>
<path d="M366.883 230.705L370.711 219.992" stroke="white" stroke-linecap="round" stroke-linejoin="round"/>
<path d="M343.541 251.371L357.316 266.299" stroke="white" stroke-linecap="round" stroke-linejoin="round"/>
<path d="M380.28 259.794L357.316 271.659" stroke="white" stroke-linecap="round" stroke-linejoin="round"/>
<path d="M368.035 266.678L376.451 266.299" stroke="white" stroke-linecap="round" stroke-linejoin="round"/>
<path d="M356.551 282.371L360 177.128" stroke="#F9AB00" stroke-linecap="round" stroke-linejoin="round"/>
<path d="M358.467 238.362L376.45 221.524" stroke="#F9AB00" stroke-linecap="round" stroke-linejoin="round"/>
<path d="M366.883 230.705L370.711 219.992" stroke="#F9AB00" stroke-linecap="round" stroke-linejoin="round"/>
<path d="M343.541 251.371L357.316 266.299" stroke="#F9AB00" stroke-linecap="round" stroke-linejoin="round"/>
<path d="M380.28 259.794L357.316 271.659" stroke="#F9AB00" stroke-linecap="round" stroke-linejoin="round"/>
<path d="M368.035 266.678L376.451 266.299" stroke="#F9AB00" stroke-linecap="round" stroke-linejoin="round"/>
<g opacity="0.8">
<path d="M356.551 282.371L360 177.128" stroke="white" stroke-linecap="round" stroke-linejoin="round"/>
<path d="M358.469 238.362L376.452 221.524" stroke="white" stroke-linecap="round" stroke-linejoin="round"/>
<path d="M366.885 230.705L370.713 219.992" stroke="white" stroke-linecap="round" stroke-linejoin="round"/>
<path d="M343.541 251.371L357.316 266.299" stroke="white" stroke-linecap="round" stroke-linejoin="round"/>
<path d="M380.28 259.794L357.316 271.658" stroke="white" stroke-linecap="round" stroke-linejoin="round"/>
<path d="M368.035 266.678L376.451 266.299" stroke="white" stroke-linecap="round" stroke-linejoin="round"/>
</g>
<path d="M290.812 261.104C290.812 271.803 299.29 280.481 299.29 280.481C299.29 280.481 307.768 271.803 307.768 261.104C307.768 250.406 299.29 241.728 299.29 241.728C299.29 241.728 290.812 250.399 290.812 261.104Z" fill="#F9AB00"/>
<path d="M284.935 277.611C289.073 282.254 296.068 282.757 296.068 282.757C296.068 282.757 296.406 275.728 292.295 271.086C288.184 266.443 281.161 265.94 281.161 265.94C281.161 265.94 280.816 272.969 284.935 277.611Z" fill="#F9AB00"/>
<path d="M306.54 270.927C302.215 275.376 302.242 282.412 302.242 282.412C302.242 282.412 309.271 282.226 313.589 277.77C317.908 273.314 317.894 266.285 317.894 266.285C317.894 266.285 310.858 266.471 306.54 270.927Z" fill="#F9AB00"/>
<g opacity="0.5">
<path d="M290.812 261.104C290.812 271.803 299.29 280.481 299.29 280.481C299.29 280.481 307.768 271.803 307.768 261.104C307.768 250.406 299.29 241.728 299.29 241.728C299.29 241.728 290.812 250.399 290.812 261.104Z" fill="white"/>
<path d="M299.289 280.481V241.728" stroke="white" stroke-linecap="round" stroke-linejoin="round"/>
<path d="M299.289 255.503L294.543 251.358" stroke="white" stroke-linecap="round" stroke-linejoin="round"/>
<path d="M299.365 261.905L305.242 253.393" stroke="white" stroke-linecap="round" stroke-linejoin="round"/>
<path d="M299.29 265.595L292.281 259.346" stroke="white" stroke-linecap="round" stroke-linejoin="round"/>
<path d="M299.365 270.569L306.298 264.395" stroke="white" stroke-linecap="round" stroke-linejoin="round"/>
<path d="M299.366 274.866L293.938 270.569" stroke="white" stroke-linecap="round" stroke-linejoin="round"/>
<path d="M284.935 277.611C289.073 282.254 296.068 282.757 296.068 282.757C296.068 282.757 296.406 275.728 292.295 271.086C288.184 266.443 281.161 265.94 281.161 265.94C281.161 265.94 280.816 272.969 284.935 277.611Z" fill="white"/>
<path d="M296.069 282.757L281.162 265.94" stroke="white" stroke-linecap="round" stroke-linejoin="round"/>
<path d="M286.459 271.921L282.803 271.948" stroke="white" stroke-linecap="round" stroke-linejoin="round"/>
<path d="M288.957 274.666L288.232 268.713" stroke="white" stroke-linecap="round" stroke-linejoin="round"/>
<path d="M290.343 276.301L284.9 276.28" stroke="white" stroke-linecap="round" stroke-linejoin="round"/>
<path d="M292.287 278.425L292.915 273.079" stroke="white" stroke-linecap="round" stroke-linejoin="round"/>
<path d="M293.943 280.288L289.936 280.515" stroke="white" stroke-linecap="round" stroke-linejoin="round"/>
<path d="M306.54 270.927C302.215 275.376 302.242 282.412 302.242 282.412C302.242 282.412 309.271 282.226 313.589 277.77C317.908 273.314 317.894 266.285 317.894 266.285C317.894 266.285 310.858 266.471 306.54 270.927Z" fill="white"/>
<path d="M302.242 282.412L317.894 266.285" stroke="white" stroke-linecap="round" stroke-linejoin="round"/>
<path d="M312.326 272.017L312.029 268.375" stroke="white" stroke-linecap="round" stroke-linejoin="round"/>
<path d="M309.773 274.714L315.657 273.542" stroke="white" stroke-linecap="round" stroke-linejoin="round"/>
<path d="M308.25 276.218L307.863 270.789" stroke="white" stroke-linecap="round" stroke-linejoin="round"/>
<path d="M306.27 278.315L311.65 278.549" stroke="white" stroke-linecap="round" stroke-linejoin="round"/>
<path d="M304.538 280.102L304.014 276.128" stroke="white" stroke-linecap="round" stroke-linejoin="round"/>
</g>
<path d="M299.289 280.481V241.728" stroke="#F9AB00" stroke-linecap="round" stroke-linejoin="round"/>
<path d="M299.291 255.503L294.545 251.358" stroke="#F9AB00" stroke-linecap="round" stroke-linejoin="round"/>
<path d="M299.365 261.905L305.242 253.393" stroke="#F9AB00" stroke-linecap="round" stroke-linejoin="round"/>
<path d="M299.29 265.595L292.281 259.346" stroke="#F9AB00" stroke-linecap="round" stroke-linejoin="round"/>
<path d="M299.365 270.569L306.298 264.395" stroke="#F9AB00" stroke-linecap="round" stroke-linejoin="round"/>
<path d="M299.366 274.866L293.938 270.569" stroke="#F9AB00" stroke-linecap="round" stroke-linejoin="round"/>
<g opacity="0.7">
<path d="M299.289 280.481V241.728" stroke="white" stroke-linecap="round" stroke-linejoin="round"/>
<path d="M299.289 255.503L294.543 251.358" stroke="white" stroke-linecap="round" stroke-linejoin="round"/>
<path d="M299.365 261.905L305.242 253.393" stroke="white" stroke-linecap="round" stroke-linejoin="round"/>
<path d="M299.29 265.595L292.281 259.346" stroke="white" stroke-linecap="round" stroke-linejoin="round"/>
<path d="M299.365 270.569L306.298 264.395" stroke="white" stroke-linecap="round" stroke-linejoin="round"/>
<path d="M299.366 274.866L293.938 270.569" stroke="white" stroke-linecap="round" stroke-linejoin="round"/>
</g>
<path d="M296.069 282.757L281.162 265.94" stroke="#F9AB00" stroke-linecap="round" stroke-linejoin="round"/>
<path d="M286.459 271.921L282.803 271.948" stroke="#F9AB00" stroke-linecap="round" stroke-linejoin="round"/>
<path d="M288.957 274.666L288.232 268.713" stroke="#F9AB00" stroke-linecap="round" stroke-linejoin="round"/>
<path d="M290.343 276.301L284.9 276.28" stroke="#F9AB00" stroke-linecap="round" stroke-linejoin="round"/>
<path d="M292.289 278.425L292.917 273.079" stroke="#F9AB00" stroke-linecap="round" stroke-linejoin="round"/>
<path d="M293.943 280.288L289.936 280.515" stroke="#F9AB00" stroke-linecap="round" stroke-linejoin="round"/>
<g opacity="0.7">
<path d="M296.069 282.757L281.162 265.94" stroke="white" stroke-linecap="round" stroke-linejoin="round"/>
<path d="M286.461 271.921L282.805 271.948" stroke="white" stroke-linecap="round" stroke-linejoin="round"/>
<path d="M288.957 274.666L288.232 268.713" stroke="white" stroke-linecap="round" stroke-linejoin="round"/>
<path d="M290.343 276.301L284.9 276.28" stroke="white" stroke-linecap="round" stroke-linejoin="round"/>
<path d="M292.289 278.425L292.917 273.079" stroke="white" stroke-linecap="round" stroke-linejoin="round"/>
<path d="M293.943 280.288L289.936 280.515" stroke="white" stroke-linecap="round" stroke-linejoin="round"/>
</g>
<path d="M302.242 282.412L317.894 266.285" stroke="#F9AB00" stroke-linecap="round" stroke-linejoin="round"/>
<path d="M312.328 272.017L312.031 268.375" stroke="#F9AB00" stroke-linecap="round" stroke-linejoin="round"/>
<path d="M309.775 274.714L315.659 273.542" stroke="#F9AB00" stroke-linecap="round" stroke-linejoin="round"/>
<path d="M308.25 276.218L307.863 270.789" stroke="#F9AB00" stroke-linecap="round" stroke-linejoin="round"/>
<path d="M306.271 278.315L311.652 278.549" stroke="#F9AB00" stroke-linecap="round" stroke-linejoin="round"/>
<path d="M304.54 280.102L304.016 276.128" stroke="#F9AB00" stroke-linecap="round" stroke-linejoin="round"/>
<g opacity="0.7">
<path d="M302.242 282.412L317.894 266.285" stroke="white" stroke-linecap="round" stroke-linejoin="round"/>
<path d="M312.328 272.017L312.031 268.375" stroke="white" stroke-linecap="round" stroke-linejoin="round"/>
<path d="M309.775 274.714L315.659 273.542" stroke="white" stroke-linecap="round" stroke-linejoin="round"/>
<path d="M308.25 276.218L307.863 270.789" stroke="white" stroke-linecap="round" stroke-linejoin="round"/>
<path d="M306.271 278.315L311.652 278.549" stroke="white" stroke-linecap="round" stroke-linejoin="round"/>
<path d="M304.54 280.102L304.016 276.128" stroke="white" stroke-linecap="round" stroke-linejoin="round"/>
</g>
<path d="M21.0249 185.937C21.2525 177.322 20.5903 162.629 28.1436 156.579C34.7795 151.268 39.9392 158.476 41.7947 164.291C46.3129 178.398 44.1883 193.953 44.1814 208.514C44.1814 208.735 44.1814 208.956 44.1814 209.204C44.5401 219.924 45.8231 231.519 44.6574 242.218C44.6574 242.218 45.8024 231.498 54.2249 236.092C62.6473 240.686 50.0102 264.795 50.0102 264.795C50.0102 264.795 59.964 257.524 64.5581 263.65C69.1522 269.775 58.8328 276.632 58.8328 276.632C58.8328 276.632 68.4003 273.955 68.4003 276.632C68.4003 279.308 65.3376 281.605 56.5357 282.757H9.07063C9.07063 282.757 1.41386 278.543 2.94522 273.955C4.47657 269.368 12.5127 272.038 12.5127 272.038C12.5127 272.038 0.268793 257.111 1.03447 250.606C1.80015 244.101 17.4931 251.758 17.4931 251.758C17.4931 251.758 5.24225 220.758 7.53928 207.004C9.34655 196.153 17.7759 203.555 22.3562 207.749C21.2775 200.531 20.832 193.232 21.0249 185.937Z" fill="#F9AB00" stroke="white" stroke-linecap="round" stroke-linejoin="round"/>
<path opacity="0.5" d="M21.0249 185.937C21.2525 177.322 20.5903 162.629 28.1436 156.579C34.7795 151.268 39.9392 158.476 41.7947 164.291C46.3129 178.398 44.1883 193.953 44.1814 208.514C44.1814 208.735 44.1814 208.956 44.1814 209.204C44.5401 219.924 45.8231 231.519 44.6574 242.218C44.6574 242.218 45.8024 231.498 54.2249 236.092C62.6473 240.686 50.0102 264.795 50.0102 264.795C50.0102 264.795 59.964 257.524 64.5581 263.65C69.1522 269.775 58.8328 276.632 58.8328 276.632C58.8328 276.632 68.4003 273.955 68.4003 276.632C68.4003 279.308 65.3376 281.605 56.5357 282.757H9.07063C9.07063 282.757 1.41386 278.543 2.94522 273.955C4.47657 269.368 12.5127 272.038 12.5127 272.038C12.5127 272.038 0.268793 257.111 1.03447 250.606C1.80015 244.101 17.4931 251.758 17.4931 251.758C17.4931 251.758 5.24225 220.758 7.53928 207.004C9.34655 196.153 17.7759 203.555 22.3562 207.749C21.2775 200.531 20.832 193.232 21.0249 185.937Z" fill="white"/>
<path d="M36.2409 282.371L32.7988 177.128" stroke="white" stroke-linecap="round" stroke-linejoin="round"/>
<path d="M34.3318 238.362L16.3418 221.524" stroke="white" stroke-linecap="round" stroke-linejoin="round"/>
<path d="M25.9085 230.705L22.0801 219.992" stroke="white" stroke-linecap="round" stroke-linejoin="round"/>
<path d="M49.2519 251.371L35.4766 266.299" stroke="white" stroke-linecap="round" stroke-linejoin="round"/>
<path d="M12.5137 259.794L35.4771 271.659" stroke="white" stroke-linecap="round" stroke-linejoin="round"/>
<path d="M24.7642 266.678L16.3418 266.299" stroke="white" stroke-linecap="round" stroke-linejoin="round"/>
<path d="M36.2409 282.371L32.7988 177.128" stroke="#F9AB00" stroke-linecap="round" stroke-linejoin="round"/>
<path d="M34.3318 238.362L16.3418 221.524" stroke="#F9AB00" stroke-linecap="round" stroke-linejoin="round"/>
<path d="M25.9085 230.705L22.0801 219.992" stroke="#F9AB00" stroke-linecap="round" stroke-linejoin="round"/>
<path d="M49.2519 251.371L35.4766 266.299" stroke="#F9AB00" stroke-linecap="round" stroke-linejoin="round"/>
<path d="M12.5137 259.794L35.4771 271.659" stroke="#F9AB00" stroke-linecap="round" stroke-linejoin="round"/>
<path d="M24.7642 266.678L16.3418 266.299" stroke="#F9AB00" stroke-linecap="round" stroke-linejoin="round"/>
<g opacity="0.8">
<path d="M36.2429 282.371L32.8008 177.128" stroke="white" stroke-linecap="round" stroke-linejoin="round"/>
<path d="M34.3318 238.362L16.3418 221.524" stroke="white" stroke-linecap="round" stroke-linejoin="round"/>
<path d="M25.9104 230.705L22.082 219.992" stroke="white" stroke-linecap="round" stroke-linejoin="round"/>
<path d="M49.2519 251.371L35.4766 266.299" stroke="white" stroke-linecap="round" stroke-linejoin="round"/>
<path d="M12.5137 259.794L35.4771 271.658" stroke="white" stroke-linecap="round" stroke-linejoin="round"/>
<path d="M24.7642 266.678L16.3418 266.299" stroke="white" stroke-linecap="round" stroke-linejoin="round"/>
</g>
<path d="M103.365 261.104C103.365 271.803 94.8877 280.481 94.8877 280.481C94.8877 280.481 86.4238 271.803 86.4238 261.104C86.4238 250.406 94.9015 241.728 94.9015 241.728C94.9015 241.728 103.365 250.399 103.365 261.104Z" fill="#F9AB00"/>
<path d="M109.236 277.611C105.097 282.254 98.1024 282.757 98.1024 282.757C98.1024 282.757 97.7644 275.728 101.883 271.086C106.001 266.443 113.016 265.94 113.016 265.94C113.016 265.94 113.326 272.969 109.236 277.611Z" fill="#F9AB00"/>
<path d="M87.6393 270.927C91.9574 275.376 91.9367 282.412 91.9367 282.412C91.9367 282.412 84.9076 282.226 80.5826 277.77C76.2576 273.314 76.2852 266.285 76.2852 266.285C76.2852 266.285 83.3142 266.471 87.6393 270.927Z" fill="#F9AB00"/>
<g opacity="0.5">
<path d="M103.367 261.104C103.367 271.803 94.8896 280.481 94.8896 280.481C94.8896 280.481 86.4258 271.803 86.4258 261.104C86.4258 250.406 94.9034 241.728 94.9034 241.728C94.9034 241.728 103.367 250.399 103.367 261.104Z" fill="white"/>
<path d="M94.8887 280.481V241.728" stroke="white" stroke-linecap="round" stroke-linejoin="round"/>
<path d="M94.8887 255.503L99.6345 251.358" stroke="white" stroke-linecap="round" stroke-linejoin="round"/>
<path d="M94.8126 261.905L88.9355 253.393" stroke="white" stroke-linecap="round" stroke-linejoin="round"/>
<path d="M94.8887 265.595L101.897 259.346" stroke="white" stroke-linecap="round" stroke-linejoin="round"/>
<path d="M94.8133 270.569L87.8809 264.395" stroke="white" stroke-linecap="round" stroke-linejoin="round"/>
<path d="M94.8125 274.866L100.234 270.569" stroke="white" stroke-linecap="round" stroke-linejoin="round"/>
<path d="M109.238 277.611C105.099 282.254 98.1044 282.757 98.1044 282.757C98.1044 282.757 97.7664 275.728 101.884 271.086C106.003 266.443 113.018 265.94 113.018 265.94C113.018 265.94 113.328 272.969 109.238 277.611Z" fill="white"/>
<path d="M98.1035 282.757L113.017 265.94" stroke="white" stroke-linecap="round" stroke-linejoin="round"/>
<path d="M107.719 271.921L111.368 271.948" stroke="white" stroke-linecap="round" stroke-linejoin="round"/>
<path d="M105.223 274.666L105.947 268.713" stroke="white" stroke-linecap="round" stroke-linejoin="round"/>
<path d="M103.828 276.301L109.278 276.28" stroke="white" stroke-linecap="round" stroke-linejoin="round"/>
<path d="M101.884 278.425L101.256 273.079" stroke="white" stroke-linecap="round" stroke-linejoin="round"/>
<path d="M100.234 280.288L104.242 280.515" stroke="white" stroke-linecap="round" stroke-linejoin="round"/>
<path d="M87.6393 270.927C91.9574 275.376 91.9367 282.412 91.9367 282.412C91.9367 282.412 84.9076 282.226 80.5826 277.77C76.2576 273.314 76.2852 266.285 76.2852 266.285C76.2852 266.285 83.3142 266.471 87.6393 270.927Z" fill="white"/>
<path d="M91.9367 282.412L76.2852 266.285" stroke="white" stroke-linecap="round" stroke-linejoin="round"/>
<path d="M81.8457 272.017L82.1492 268.375" stroke="white" stroke-linecap="round" stroke-linejoin="round"/>
<path d="M84.4035 274.714L78.5195 273.542" stroke="white" stroke-linecap="round" stroke-linejoin="round"/>
<path d="M85.9219 276.218L86.3151 270.789" stroke="white" stroke-linecap="round" stroke-linejoin="round"/>
<path d="M87.9019 278.315L82.5215 278.549" stroke="white" stroke-linecap="round" stroke-linejoin="round"/>
<path d="M89.6406 280.102L90.158 276.128" stroke="white" stroke-linecap="round" stroke-linejoin="round"/>
</g>
<path d="M94.8887 280.481V241.728" stroke="#F9AB00" stroke-linecap="round" stroke-linejoin="round"/>
<path d="M94.8887 255.503L99.6345 251.358" stroke="#F9AB00" stroke-linecap="round" stroke-linejoin="round"/>
<path d="M94.8126 261.905L88.9355 253.393" stroke="#F9AB00" stroke-linecap="round" stroke-linejoin="round"/>
<path d="M94.8887 265.595L101.897 259.346" stroke="#F9AB00" stroke-linecap="round" stroke-linejoin="round"/>
<path d="M94.8133 270.569L87.8809 264.395" stroke="#F9AB00" stroke-linecap="round" stroke-linejoin="round"/>
<path d="M94.8125 274.866L100.234 270.569" stroke="#F9AB00" stroke-linecap="round" stroke-linejoin="round"/>
<g opacity="0.7">
<path d="M94.8887 280.481V241.728" stroke="white" stroke-linecap="round" stroke-linejoin="round"/>
<path d="M94.8887 255.503L99.6345 251.358" stroke="white" stroke-linecap="round" stroke-linejoin="round"/>
<path d="M94.8126 261.905L88.9355 253.393" stroke="white" stroke-linecap="round" stroke-linejoin="round"/>
<path d="M94.8887 265.595L101.897 259.346" stroke="white" stroke-linecap="round" stroke-linejoin="round"/>
<path d="M94.8133 270.569L87.8809 264.395" stroke="white" stroke-linecap="round" stroke-linejoin="round"/>
<path d="M94.8125 274.866L100.234 270.569" stroke="white" stroke-linecap="round" stroke-linejoin="round"/>
</g>
<path d="M98.1035 282.757L113.017 265.94" stroke="#F9AB00" stroke-linecap="round" stroke-linejoin="round"/>
<path d="M107.719 271.921L111.368 271.948" stroke="#F9AB00" stroke-linecap="round" stroke-linejoin="round"/>
<path d="M105.223 274.666L105.947 268.713" stroke="#F9AB00" stroke-linecap="round" stroke-linejoin="round"/>
<path d="M103.828 276.301L109.278 276.28" stroke="#F9AB00" stroke-linecap="round" stroke-linejoin="round"/>
<path d="M101.884 278.425L101.256 273.079" stroke="#F9AB00" stroke-linecap="round" stroke-linejoin="round"/>
<path d="M100.234 280.288L104.242 280.515" stroke="#F9AB00" stroke-linecap="round" stroke-linejoin="round"/>
<g opacity="0.7">
<path d="M98.1035 282.757L113.017 265.94" stroke="white" stroke-linecap="round" stroke-linejoin="round"/>
<path d="M107.719 271.921L111.368 271.948" stroke="white" stroke-linecap="round" stroke-linejoin="round"/>
<path d="M105.223 274.666L105.947 268.713" stroke="white" stroke-linecap="round" stroke-linejoin="round"/>
<path d="M103.828 276.301L109.278 276.28" stroke="white" stroke-linecap="round" stroke-linejoin="round"/>
<path d="M101.884 278.425L101.256 273.079" stroke="white" stroke-linecap="round" stroke-linejoin="round"/>
<path d="M100.234 280.288L104.242 280.515" stroke="white" stroke-linecap="round" stroke-linejoin="round"/>
</g>
<path d="M91.9367 282.412L76.2852 266.285" stroke="#F9AB00" stroke-linecap="round" stroke-linejoin="round"/>
<path d="M81.8438 272.017L82.1473 268.375" stroke="#F9AB00" stroke-linecap="round" stroke-linejoin="round"/>
<path d="M84.4035 274.714L78.5195 273.542" stroke="#F9AB00" stroke-linecap="round" stroke-linejoin="round"/>
<path d="M85.9219 276.218L86.3151 270.789" stroke="#F9AB00" stroke-linecap="round" stroke-linejoin="round"/>
<path d="M87.9 278.315L82.5195 278.549" stroke="#F9AB00" stroke-linecap="round" stroke-linejoin="round"/>
<path d="M89.6387 280.102L90.156 276.128" stroke="#F9AB00" stroke-linecap="round" stroke-linejoin="round"/>
<g opacity="0.7">
<path d="M91.9367 282.412L76.2852 266.285" stroke="white" stroke-linecap="round" stroke-linejoin="round"/>
<path d="M81.8457 272.017L82.1492 268.375" stroke="white" stroke-linecap="round" stroke-linejoin="round"/>
<path d="M84.4035 274.714L78.5195 273.542" stroke="white" stroke-linecap="round" stroke-linejoin="round"/>
<path d="M85.9219 276.218L86.3151 270.789" stroke="white" stroke-linecap="round" stroke-linejoin="round"/>
<path d="M87.9019 278.315L82.5215 278.549" stroke="white" stroke-linecap="round" stroke-linejoin="round"/>
<path d="M89.6406 280.102L90.158 276.128" stroke="white" stroke-linecap="round" stroke-linejoin="round"/>
</g>
<path d="M294.317 77.749H107.844C107.788 77.7499 107.732 77.7397 107.681 77.7189C107.629 77.6982 107.581 77.6674 107.542 77.6282C107.502 77.589 107.47 77.5423 107.449 77.4908C107.427 77.4393 107.416 77.384 107.416 77.3282C107.416 77.2148 107.461 77.106 107.541 77.0258C107.621 76.9456 107.73 76.9005 107.844 76.9005H294.317C294.373 76.9005 294.428 76.9116 294.48 76.9332C294.531 76.9548 294.578 76.9864 294.617 77.0262C294.656 77.066 294.687 77.1132 294.708 77.1651C294.729 77.2169 294.739 77.2723 294.738 77.3282C294.738 77.4398 294.694 77.5468 294.615 77.6257C294.536 77.7046 294.429 77.749 294.317 77.749Z" fill="#F9AB00"/>
<g opacity="0.3">
<path d="M294.317 77.749H107.844C107.788 77.7499 107.732 77.7397 107.681 77.7189C107.629 77.6982 107.581 77.6674 107.542 77.6282C107.502 77.589 107.47 77.5423 107.449 77.4908C107.427 77.4393 107.416 77.384 107.416 77.3282C107.416 77.2148 107.461 77.106 107.541 77.0258C107.621 76.9456 107.73 76.9005 107.844 76.9005H294.317C294.373 76.9005 294.428 76.9116 294.48 76.9332C294.531 76.9548 294.578 76.9864 294.617 77.0262C294.656 77.066 294.687 77.1132 294.708 77.1651C294.729 77.2169 294.739 77.2723 294.738 77.3282C294.738 77.4398 294.694 77.5468 294.615 77.6257C294.536 77.7046 294.429 77.749 294.317 77.749Z" fill="white"/>
</g>
<path d="M293.944 151.709H107.471C107.415 151.71 107.359 151.7 107.308 151.679C107.256 151.659 107.208 151.628 107.169 151.589C107.129 151.549 107.097 151.503 107.076 151.451C107.054 151.4 107.043 151.344 107.043 151.289C107.043 151.175 107.088 151.066 107.168 150.986C107.248 150.906 107.357 150.861 107.471 150.861H293.944C294 150.861 294.055 150.872 294.107 150.894C294.158 150.915 294.205 150.947 294.244 150.987C294.283 151.026 294.314 151.074 294.335 151.125C294.356 151.177 294.366 151.233 294.365 151.289C294.365 151.344 294.354 151.399 294.333 151.45C294.312 151.501 294.281 151.547 294.242 151.586C294.203 151.625 294.156 151.656 294.105 151.677C294.054 151.698 293.999 151.709 293.944 151.709Z" fill="#F9AB00"/>
<g opacity="0.3">
<path d="M293.944 151.709H107.471C107.415 151.71 107.359 151.7 107.308 151.679C107.256 151.659 107.208 151.628 107.169 151.589C107.129 151.549 107.097 151.503 107.076 151.451C107.054 151.4 107.043 151.344 107.043 151.289C107.043 151.175 107.088 151.066 107.168 150.986C107.248 150.906 107.357 150.861 107.471 150.861H293.944C294 150.861 294.055 150.872 294.107 150.894C294.158 150.915 294.205 150.947 294.244 150.987C294.283 151.026 294.314 151.074 294.335 151.125C294.356 151.177 294.366 151.233 294.365 151.289C294.365 151.344 294.354 151.399 294.333 151.45C294.312 151.501 294.281 151.547 294.242 151.586C294.203 151.625 294.156 151.656 294.105 151.677C294.054 151.698 293.999 151.709 293.944 151.709Z" fill="white"/>
</g>
<path d="M293.944 212.17H107.471C107.357 212.17 107.248 212.125 107.168 212.045C107.088 211.965 107.043 211.856 107.043 211.742C107.043 211.687 107.054 211.631 107.076 211.58C107.097 211.528 107.129 211.482 107.169 211.442C107.208 211.403 107.256 211.372 107.308 211.352C107.359 211.331 107.415 211.321 107.471 211.322H293.944C293.999 211.322 294.054 211.333 294.105 211.354C294.156 211.375 294.203 211.406 294.242 211.445C294.281 211.484 294.312 211.53 294.333 211.581C294.354 211.633 294.365 211.687 294.365 211.742C294.366 211.798 294.356 211.854 294.335 211.906C294.314 211.957 294.283 212.005 294.244 212.044C294.205 212.084 294.158 212.116 294.107 212.137C294.055 212.159 294 212.17 293.944 212.17Z" fill="#F9AB00"/>
<g opacity="0.3">
<path d="M293.944 212.17H107.471C107.357 212.17 107.248 212.125 107.168 212.045C107.088 211.965 107.043 211.856 107.043 211.742C107.043 211.687 107.054 211.631 107.076 211.58C107.097 211.528 107.129 211.482 107.169 211.442C107.208 211.403 107.256 211.372 107.308 211.352C107.359 211.331 107.415 211.321 107.471 211.322H293.944C293.999 211.322 294.054 211.333 294.105 211.354C294.156 211.375 294.203 211.406 294.242 211.445C294.281 211.484 294.312 211.53 294.333 211.581C294.354 211.633 294.365 211.687 294.365 211.742C294.366 211.798 294.356 211.854 294.335 211.906C294.314 211.957 294.283 212.005 294.244 212.044C294.205 212.084 294.158 212.116 294.107 212.137C294.055 212.159 294 212.17 293.944 212.17Z" fill="white"/>
</g>
<path d="M147.113 222.4V285.323" stroke="#202124" stroke-width="0.265171" stroke-miterlimit="10"/>
<path d="M156.102 222.4V285.323" stroke="#202124" stroke-width="0.265171" stroke-miterlimit="10"/>
<path d="M165.09 222.4V285.323" stroke="#202124" stroke-width="0.265171" stroke-miterlimit="10"/>
<path d="M174.078 222.4V285.323" stroke="#202124" stroke-width="0.265171" stroke-miterlimit="10"/>
<path d="M183.066 222.4V285.323" stroke="#202124" stroke-width="0.265171" stroke-miterlimit="10"/>
<path d="M192.053 222.4V285.323" stroke="#202124" stroke-width="0.265171" stroke-miterlimit="10"/>
<path d="M201.041 222.4V285.323" stroke="#202124" stroke-width="0.265171" stroke-miterlimit="10"/>
<path d="M210.029 222.4V285.323" stroke="#202124" stroke-width="0.265171" stroke-miterlimit="10"/>
<path d="M219.018 222.4V285.323" stroke="#202124" stroke-width="0.265171" stroke-miterlimit="10"/>
<path d="M228.006 222.4V285.323" stroke="#202124" stroke-width="0.265171" stroke-miterlimit="10"/>
<path d="M236.994 222.4V285.323" stroke="#202124" stroke-width="0.265171" stroke-miterlimit="10"/>
<path d="M245.982 222.4V285.323" stroke="#202124" stroke-width="0.265171" stroke-miterlimit="10"/>
<path d="M147.562 228.242H245.535" stroke="#202124" stroke-width="0.265171" stroke-miterlimit="10"/>
<path d="M147.562 236.782H245.535" stroke="#202124" stroke-width="0.265171" stroke-miterlimit="10"/>
<path d="M147.562 245.322H245.535" stroke="#202124" stroke-width="0.265171" stroke-miterlimit="10"/>
<path d="M147.562 253.862H245.535" stroke="#202124" stroke-width="0.265171" stroke-miterlimit="10"/>
<path d="M147.562 262.401H245.535" stroke="#202124" stroke-width="0.265171" stroke-miterlimit="10"/>
<path d="M147.562 270.941H245.535" stroke="#202124" stroke-width="0.265171" stroke-miterlimit="10"/>
<path d="M147.562 279.481H245.535" stroke="#202124" stroke-width="0.265171" stroke-miterlimit="10"/>
<path d="M168.146 244.474L154.998 285.006H182.535L169.38 244.474C169.338 244.343 169.256 244.229 169.145 244.148C169.034 244.067 168.9 244.023 168.763 244.023C168.626 244.023 168.492 244.067 168.381 244.148C168.27 244.229 168.188 244.343 168.146 244.474Z" fill="#F9AB00" stroke="#202124" stroke-width="1.06068" stroke-miterlimit="10"/>
<path d="M193.213 231.05L175.713 285.006H211.969L194.448 231.05C194.406 230.919 194.323 230.805 194.213 230.724C194.102 230.643 193.968 230.6 193.83 230.6C193.693 230.6 193.559 230.643 193.448 230.724C193.337 230.805 193.255 230.919 193.213 231.05Z" fill="#202124" stroke="#202124" stroke-width="1.06068" stroke-miterlimit="10"/>
<path d="M216.28 253.744L206.133 285.006H227.655L217.487 253.744C217.439 253.623 217.356 253.519 217.249 253.446C217.141 253.372 217.014 253.333 216.883 253.333C216.753 253.333 216.626 253.372 216.518 253.446C216.41 253.519 216.327 253.623 216.28 253.744Z" fill="#F9AB00" stroke="#202124" stroke-width="1.06068" stroke-miterlimit="10"/>
<path d="M230.178 264.478L223.521 285.006H238.069L231.413 264.478C231.371 264.347 231.288 264.233 231.177 264.152C231.067 264.071 230.933 264.027 230.795 264.027C230.658 264.027 230.524 264.071 230.413 264.152C230.302 264.233 230.22 264.347 230.178 264.478Z" fill="#202124" stroke="#202124" stroke-width="1.06068" stroke-miterlimit="10"/>
<path d="M145.926 202.513C141.982 202.513 138.127 201.343 134.847 199.152C131.568 196.961 129.012 193.846 127.502 190.202C125.993 186.558 125.598 182.549 126.368 178.68C127.137 174.812 129.036 171.259 131.825 168.47C134.614 165.681 138.168 163.781 142.036 163.012C145.904 162.243 149.914 162.637 153.558 164.147C157.202 165.656 160.316 168.212 162.508 171.492C164.699 174.771 165.869 178.627 165.869 182.571C165.863 187.858 163.76 192.927 160.022 196.666C156.283 200.405 151.214 202.508 145.926 202.513ZM145.926 168.485C143.141 168.487 140.418 169.314 138.103 170.862C135.787 172.411 133.983 174.611 132.918 177.185C131.853 179.759 131.575 182.591 132.119 185.323C132.663 188.055 134.006 190.564 135.976 192.533C137.946 194.503 140.456 195.844 143.188 196.386C145.92 196.929 148.752 196.65 151.325 195.584C153.899 194.517 156.098 192.712 157.646 190.396C159.193 188.08 160.019 185.356 160.019 182.571C160.015 178.835 158.529 175.253 155.887 172.612C153.245 169.971 149.662 168.487 145.926 168.485Z" fill="#202124" stroke="#202124" stroke-width="1.06068" stroke-miterlimit="10"/>
<path d="M145.927 202.513C143.236 202.521 140.571 201.98 138.096 200.924C135.621 199.867 133.387 198.316 131.531 196.367L135.76 192.318C137.07 193.695 138.647 194.79 140.396 195.536C142.144 196.282 144.026 196.664 145.927 196.657C147.777 196.657 149.609 196.292 151.318 195.584C153.027 194.876 154.579 193.839 155.887 192.531C157.195 191.223 158.233 189.67 158.941 187.961C159.649 186.252 160.013 184.421 160.013 182.571C160.013 180.721 159.649 178.889 158.941 177.181C158.233 175.472 157.195 173.919 155.887 172.611C154.579 171.303 153.027 170.265 151.318 169.557C149.609 168.85 147.777 168.485 145.927 168.485V162.629C148.546 162.629 151.139 163.145 153.559 164.147C155.978 165.149 158.177 166.618 160.029 168.47C161.88 170.321 163.349 172.52 164.351 174.939C165.354 177.359 165.869 179.952 165.869 182.571C165.869 185.19 165.354 187.783 164.351 190.202C163.349 192.622 161.88 194.82 160.029 196.672C158.177 198.524 155.978 199.993 153.559 200.995C151.139 201.997 148.546 202.513 145.927 202.513Z" fill="#F9AB00" stroke="#202124" stroke-width="1.06068" stroke-miterlimit="10"/>
<path d="M195.109 202.513C191.165 202.514 187.308 201.346 184.028 199.155C180.748 196.965 178.191 193.851 176.68 190.207C175.17 186.563 174.774 182.553 175.543 178.685C176.311 174.816 178.21 171.262 180.999 168.472C183.787 165.682 187.341 163.783 191.209 163.012C195.078 162.242 199.088 162.637 202.732 164.146C206.377 165.655 209.491 168.211 211.683 171.491C213.875 174.771 215.044 178.626 215.044 182.571C215.039 187.857 212.937 192.925 209.2 196.664C205.463 200.402 200.395 202.506 195.109 202.513ZM195.109 168.485C192.324 168.488 189.602 169.316 187.287 170.866C184.973 172.415 183.17 174.616 182.106 177.19C181.042 179.764 180.765 182.596 181.31 185.327C181.855 188.059 183.197 190.567 185.168 192.536C187.138 194.504 189.648 195.845 192.38 196.387C195.112 196.929 197.943 196.65 200.517 195.583C203.09 194.517 205.289 192.711 206.836 190.395C208.383 188.079 209.209 185.356 209.209 182.571C209.203 178.834 207.715 175.253 205.072 172.612C202.429 169.971 198.846 168.487 195.109 168.485Z" fill="#202124" stroke="#202124" stroke-width="1.06068" stroke-miterlimit="10"/>
<path d="M202.87 200.94L200.593 195.553C203.585 194.285 206.046 192.022 207.561 189.148C209.076 186.273 209.551 182.964 208.906 179.779C208.26 176.595 206.535 173.731 204.021 171.673C201.507 169.615 198.358 168.489 195.109 168.485V162.629C199.711 162.629 204.17 164.221 207.732 167.134C211.294 170.047 213.739 174.102 214.652 178.612C215.566 183.122 214.892 187.809 212.744 191.878C210.597 195.948 207.108 199.149 202.87 200.94Z" fill="#F9AB00" stroke="#202124" stroke-width="1.06068" stroke-miterlimit="10"/>
<path d="M244.286 202.513C240.342 202.513 236.486 201.343 233.207 199.152C229.927 196.961 227.371 193.846 225.862 190.202C224.352 186.558 223.957 182.549 224.727 178.68C225.496 174.812 227.396 171.259 230.185 168.47C232.974 165.681 236.527 163.781 240.395 163.012C244.264 162.243 248.273 162.637 251.917 164.147C255.561 165.656 258.676 168.212 260.867 171.492C263.058 174.771 264.228 178.627 264.228 182.571C264.222 187.858 262.12 192.927 258.381 196.666C254.642 200.405 249.573 202.508 244.286 202.513ZM244.286 168.485C241.5 168.485 238.777 169.311 236.46 170.859C234.144 172.407 232.338 174.607 231.272 177.181C230.206 179.754 229.927 182.587 230.471 185.319C231.014 188.051 232.356 190.561 234.326 192.531C236.296 194.501 238.806 195.842 241.538 196.386C244.27 196.929 247.102 196.65 249.676 195.584C252.25 194.518 254.45 192.713 255.998 190.396C257.545 188.08 258.372 185.357 258.372 182.571C258.368 178.836 256.883 175.256 254.242 172.615C251.601 169.974 248.021 168.489 244.286 168.485Z" fill="#202124" stroke="#202124" stroke-width="1.06068" stroke-miterlimit="10"/>
<path d="M258.095 179.763C257.44 176.585 255.712 173.729 253.199 171.675C250.687 169.621 247.544 168.495 244.299 168.485V162.629C248.895 162.64 253.347 164.234 256.906 167.143C260.465 170.051 262.914 174.096 263.841 178.598L258.095 179.763Z" fill="#F9AB00" stroke="#202124" stroke-width="1.06068" stroke-miterlimit="10"/>
<path d="M153.881 140.548H247.535" stroke="#202124" stroke-width="1.06068" stroke-miterlimit="10"/>
<path d="M153.881 140.548V138.555" stroke="#202124" stroke-width="1.06068" stroke-miterlimit="10"/>
<path d="M172.609 140.548V138.555" stroke="#202124" stroke-width="1.06068" stroke-miterlimit="10"/>
<path d="M191.344 140.548V138.555" stroke="#202124" stroke-width="1.06068" stroke-miterlimit="10"/>
<path d="M210.072 140.548V138.555" stroke="#202124" stroke-width="1.06068" stroke-miterlimit="10"/>
<path d="M228.801 140.548V138.555" stroke="#202124" stroke-width="1.06068" stroke-miterlimit="10"/>
<path d="M247.535 140.548V138.555" stroke="#202124" stroke-width="1.06068" stroke-miterlimit="10"/>
<path d="M169.988 113.929H156.502V129.898H169.988V113.929Z" fill="#F9AB00" stroke="#202124" stroke-width="1.06068" stroke-miterlimit="10"/>
<path d="M188.716 95.2975H175.23V132.56H188.716V95.2975Z" fill="#F9AB00" stroke="#202124" stroke-width="1.06068" stroke-miterlimit="10"/>
<path d="M207.45 69.2162H193.965V110.742H207.45V69.2162Z" fill="#F9AB00" stroke="#202124" stroke-width="1.06068" stroke-miterlimit="10"/>
<path d="M226.179 108.079H212.693V116.067H226.179V108.079Z" fill="#F9AB00" stroke="#202124" stroke-width="1.06068" stroke-miterlimit="10"/>
<path d="M244.907 103.285H231.422V124.048H244.907V103.285Z" fill="#F9AB00" stroke="#202124" stroke-width="1.06068" stroke-miterlimit="10"/>
<path d="M169.988 129.905H156.502V140.555H169.988V129.905Z" fill="#202124" stroke="#202124" stroke-width="1.06068" stroke-miterlimit="10"/>
<path d="M188.716 132.567H175.23V140.555H188.716V132.567Z" fill="#202124" stroke="#202124" stroke-width="1.06068" stroke-miterlimit="10"/>
<path d="M207.45 110.735H193.965V140.548H207.45V110.735Z" fill="#202124" stroke="#202124" stroke-width="1.06068" stroke-miterlimit="10"/>
<path d="M226.179 116.06H212.693V140.548H226.179V116.06Z" fill="#202124" stroke="#202124" stroke-width="1.06068" stroke-miterlimit="10"/>
<path d="M244.907 124.048H231.422V140.548H244.907V124.048Z" fill="#202124" stroke="#202124" stroke-width="1.06068" stroke-miterlimit="10"/>
<path d="M272.49 61.6767C272.328 61.6779 272.168 61.6388 272.025 61.5629C271.882 61.4871 271.759 61.3768 271.669 61.2421L242.656 18.9298L213.223 50.3157L183.168 30.7254L154.093 37.4717L124.563 61.456C124.358 61.6225 124.095 61.7007 123.832 61.6736C123.57 61.6464 123.329 61.516 123.162 61.3111C122.996 61.1062 122.918 60.8436 122.945 60.581C122.972 60.3184 123.102 60.0773 123.307 59.9108L153.196 35.6368L183.547 28.5939L212.919 47.7428L242.905 15.7637L273.311 60.1178C273.414 60.2666 273.474 60.4408 273.486 60.6215C273.497 60.8023 273.459 60.9826 273.375 61.1431C273.291 61.3036 273.165 61.4382 273.01 61.5322C272.856 61.6263 272.678 61.6763 272.497 61.6767H272.49Z" fill="#202124"/>
<path d="M126.433 60.6833C126.433 61.1703 126.289 61.6465 126.018 62.0514C125.747 62.4564 125.363 62.772 124.913 62.9584C124.463 63.1448 123.968 63.1936 123.49 63.0986C123.012 63.0035 122.573 62.769 122.229 62.4246C121.885 62.0802 121.65 61.6414 121.555 61.1637C121.46 60.686 121.509 60.1909 121.695 59.7409C121.882 59.2909 122.197 58.9063 122.602 58.6357C123.007 58.3651 123.483 58.2207 123.97 58.2207C124.624 58.2207 125.25 58.4801 125.712 58.942C126.174 59.4038 126.433 60.0302 126.433 60.6833Z" fill="#F9AB00"/>
<path d="M153.646 39.0167C155.006 39.0167 156.109 37.9142 156.109 36.5541C156.109 35.1941 155.006 34.0916 153.646 34.0916C152.286 34.0916 151.184 35.1941 151.184 36.5541C151.184 37.9142 152.286 39.0167 153.646 39.0167Z" fill="#F9AB00"/>
<path d="M183.355 32.1188C184.715 32.1188 185.818 31.0162 185.818 29.6562C185.818 28.2961 184.715 27.1936 183.355 27.1936C181.995 27.1936 180.893 28.2961 180.893 29.6562C180.893 31.0162 181.995 32.1188 183.355 32.1188Z" fill="#F9AB00"/>
<path d="M213.064 51.4883C214.424 51.4883 215.527 50.3857 215.527 49.0257C215.527 47.6656 214.424 46.5631 213.064 46.5631C211.704 46.5631 210.602 47.6656 210.602 49.0257C210.602 50.3857 211.704 51.4883 213.064 51.4883Z" fill="#F9AB00"/>
<path d="M245.238 17.3502C245.238 17.8372 245.093 18.3133 244.823 18.7183C244.552 19.1233 244.167 19.4389 243.717 19.6253C243.267 19.8117 242.772 19.8604 242.295 19.7654C241.817 19.6704 241.378 19.4359 241.034 19.0915C240.689 18.7471 240.455 18.3083 240.36 17.8306C240.265 17.3529 240.314 16.8577 240.5 16.4078C240.686 15.9578 241.002 15.5732 241.407 15.3026C241.812 15.032 242.288 14.8876 242.775 14.8876C243.428 14.8876 244.055 15.147 244.516 15.6088C244.978 16.0707 245.238 16.697 245.238 17.3502Z" fill="#F9AB00"/>
<path d="M274.947 60.6833C274.947 61.1703 274.802 61.6465 274.532 62.0514C274.261 62.4564 273.876 62.772 273.426 62.9584C272.976 63.1448 272.481 63.1936 272.004 63.0986C271.526 63.0035 271.087 62.769 270.743 62.4246C270.398 62.0802 270.164 61.6414 270.069 61.1637C269.974 60.686 270.023 60.1909 270.209 59.7409C270.395 59.2909 270.711 58.9063 271.116 58.6357C271.521 58.3651 271.997 58.2207 272.484 58.2207C273.137 58.2207 273.764 58.4801 274.225 58.942C274.687 59.4038 274.947 60.0302 274.947 60.6833Z" fill="#F9AB00"/>
<path d="M325.592 295.394C351.887 295.394 373.202 292.532 373.202 289C373.202 285.468 351.887 282.606 325.592 282.606C299.298 282.606 277.982 285.468 277.982 289C277.982 292.532 299.298 295.394 325.592 295.394Z" fill="#F9AB00"/>
<path opacity="0.7" d="M325.592 295.394C351.887 295.394 373.202 292.532 373.202 289C373.202 285.468 351.887 282.606 325.592 282.606C299.298 282.606 277.982 285.468 277.982 289C277.982 292.532 299.298 295.394 325.592 295.394Z" fill="white"/>
<path d="M64.7517 295.394C89.0154 295.394 108.685 292.532 108.685 289C108.685 285.468 89.0154 282.606 64.7517 282.606C40.488 282.606 20.8184 285.468 20.8184 289C20.8184 292.532 40.488 295.394 64.7517 295.394Z" fill="#F9AB00"/>
<path opacity="0.7" d="M64.7517 295.394C89.0154 295.394 108.685 292.532 108.685 289C108.685 285.468 89.0154 282.606 64.7517 282.606C40.488 282.606 20.8184 285.468 20.8184 289C20.8184 292.532 40.488 295.394 64.7517 295.394Z" fill="white"/>
<path d="M312.154 63.7323C312.154 63.7323 330.24 61.9802 331.275 64.9946C332.31 68.009 331.965 74.8932 331.965 74.8932C332.876 75.1301 333.765 75.4463 334.621 75.8382C334.862 76.0728 337.538 77.8249 335.041 80.7013C334.389 81.4307 333.599 82.0238 332.717 82.4465C331.616 82.934 330.568 83.535 329.592 84.24L325.964 88.3581L326.653 93.6627C326.653 93.6627 328.274 94.8353 330.254 98.9258C330.254 98.9258 334.931 101.685 337.676 103.251C339.934 104.437 342.282 105.443 344.699 106.258C344.699 106.258 345.954 106.665 345.864 107.569C345.775 108.473 339.615 128.953 339.615 128.953L336.373 139.3C336.311 140.571 336.145 141.836 335.876 143.08C335.414 145.308 333.676 146.77 331.875 146.315L332.055 153.903C332.055 153.903 323.598 158.131 309.65 157.414C309.65 157.414 303.083 156.779 298.227 153.185L298.137 135.458L275.76 131.126C275.76 131.126 272.925 130.526 274.38 127.973C275.836 125.421 280.727 119.089 280.727 119.089L296.447 99.857C296.447 99.857 297.53 98.5809 297.93 98.1739C298.33 97.767 299.31 97.4841 303.193 97.1599C307.077 96.8357 311.43 96.0838 311.43 96.0838C311.43 96.0838 313.789 94.0558 314.127 94.0558C314.465 94.0558 314.534 91.0207 314.534 91.0207C313.341 90.1598 312.348 89.0505 311.626 87.7691C310.903 86.4877 310.466 85.0648 310.347 83.5985C310.009 78.6733 312.168 67.133 312.168 67.133L312.154 63.7323Z" fill="white"/>
<path d="M298.503 153.116C298.503 153.116 296.6 181.398 296.6 194.932C296.6 208.466 297.448 219.427 297.869 228.932C298.29 238.438 296.6 244.984 298.076 251.951C299.552 258.918 302.939 279.198 302.939 279.198L306.919 281.598C306.919 281.598 307.609 265.464 309.057 259.766C310.506 254.069 310.961 229.988 311.817 222.593C312.672 215.198 315.41 189.014 315.41 189.014C315.41 189.014 325.971 216.468 328.517 227.242C331.062 238.017 339.712 262.298 341.623 268.209C343.534 274.121 346.479 282.881 346.479 282.881C347.374 283.143 348.314 283.214 349.238 283.088C349.637 283.056 350.022 282.923 350.355 282.701C350.688 282.479 350.959 282.175 351.142 281.819C351.142 281.819 348.335 264.133 347.1 255.538C345.575 244.908 343.092 228.932 341.581 223.021C340.071 217.109 337.781 207.811 337.781 203.375C337.781 198.94 332.083 154.399 332.083 154.399C332.083 154.399 312.23 163.043 298.503 153.116Z" fill="#202124"/>
<path d="M315.397 189.014L306.926 179.136" stroke="white" stroke-width="0.530341" stroke-miterlimit="10" stroke-linecap="round"/>
<path d="M304.76 179.86L311.734 186.351" stroke="white" stroke-width="0.530341" stroke-miterlimit="10" stroke-linecap="round"/>
<path d="M319.666 180.584C321.452 176.066 324.77 172.32 329.04 170.003" stroke="white" stroke-width="0.530341" stroke-miterlimit="10" stroke-linecap="round"/>
<path d="M329.517 156.786C329.517 156.786 328.558 160.387 329.758 162.553C330.959 164.719 332.166 164.719 332.166 164.719C332.166 164.719 334.325 176.494 334.325 183.226C334.325 189.959 332.883 190.676 334.325 198.126C335.767 205.576 336.732 207.983 336.732 212.308C336.732 216.633 338.65 219.523 340.333 222.165C342.016 224.807 342.499 232.512 342.499 235.623C342.499 238.734 343.458 242.114 344.424 245.239C344.424 245.239 344.651 252.248 345.865 253.889C347.079 255.531 347.307 261.105 347.307 261.105" stroke="white" stroke-width="0.530341" stroke-miterlimit="10" stroke-linecap="round"/>
<path d="M313.658 188.034C313.658 188.034 314.134 193.553 312.451 203.175C310.768 212.798 309.567 215.433 309.326 226.49C309.085 237.548 310.05 239.473 309.567 245.239C309.085 251.006 306.201 260.118 306.201 264.257C306.201 268.396 306.643 281.626 306.643 281.626" stroke="white" stroke-width="0.530341" stroke-miterlimit="10" stroke-linecap="round"/>
<path d="M308.367 158.228L308.85 160.152L311.975 160.87L311.492 158.469" stroke="white" stroke-width="0.530341" stroke-miterlimit="10" stroke-linecap="round"/>
<path d="M311.988 160.87C311.988 160.87 317.755 160.628 320.638 159.67L319.949 157.745" stroke="white" stroke-width="0.530341" stroke-miterlimit="10" stroke-linecap="round"/>
<path d="M322.551 157.262L323.241 159.67C323.241 159.67 327.855 159.407 328.545 158.718" stroke="white" stroke-width="0.530341" stroke-miterlimit="10" stroke-linecap="round"/>
<path d="M308.85 160.152C307.256 160.102 305.694 159.689 304.283 158.945L302.117 157.745L302.807 156.062" stroke="white" stroke-width="0.530341" stroke-miterlimit="10" stroke-linecap="round"/>
<path d="M302.938 279.198C302.938 279.198 292.591 285.951 291.108 289.117C289.625 292.283 295.543 291.021 299.765 289.331C303.987 287.641 306.663 281.599 306.663 281.599L302.938 279.198Z" fill="white" stroke="#202124" stroke-width="1.06068" stroke-miterlimit="10" stroke-linecap="round"/>
<path d="M346.811 282.971C347.332 285.864 348.36 288.643 349.846 291.18C352.122 294.719 356.419 297.754 356.419 292.187C356.419 286.62 351.115 281.84 351.115 281.84C351.115 281.84 348.48 283.268 346.811 282.971Z" fill="white" stroke="#202124" stroke-width="1.06068" stroke-miterlimit="10" stroke-linecap="round"/>
<path d="M312.093 67.5538C312.093 67.5538 309.851 81.4602 310.61 84.9092C312.341 92.628 318.418 92.2969 322.219 90.8208C325.772 89.4412 329.317 84.5643 329.773 83.9228C329.805 83.8775 329.851 83.8437 329.904 83.8262C330.469 83.6675 333.98 82.5501 335.525 79.8392C337.215 76.8799 334.049 75.6176 334.049 75.6176" fill="white"/>
<mask id="mask0_300_4006" style="mask-type:luminance" maskUnits="userSpaceOnUse" x="310" y="67" width="27" height="25">
<path d="M312.093 67.5538C312.093 67.5538 309.851 81.4602 310.61 84.9092C312.341 92.628 318.418 92.2969 322.219 90.8208C325.772 89.4412 329.317 84.5643 329.773 83.9228C329.805 83.8775 329.851 83.8437 329.904 83.8262C330.469 83.6675 333.98 82.5501 335.525 79.8392C337.215 76.8799 334.049 75.6176 334.049 75.6176" fill="white"/>
</mask>
<g mask="url(#mask0_300_4006)">
<g style="mix-blend-mode:multiply" opacity="0.5">
<path d="M326.475 87.5028L329.827 83.8193C329.827 83.8193 333.793 82.5983 335.525 79.8046C336.539 78.1698 335.98 76.7419 335.366 76.3556C334.525 75.9002 333.656 75.4971 332.765 75.1485L331.641 77.6249L330.682 77.7904C330.682 77.7904 331.082 75.2382 329.924 73.7275C328.765 72.2168 328.503 67.8435 328.503 67.8435C328.503 67.8435 326.882 76.5626 326.681 80.2116C326.63 82.2424 325.995 84.2155 324.854 85.8956C324.854 85.8956 325.06 88.1236 325.461 90.3517C325.509 90.6138 325.557 91.007 325.605 91.4967L326.157 90.6138L326.461 91.4553C326.116 90.0068 325.957 88.4685 326.475 87.5028Z" fill="#F9AB00"/>
</g>
</g>
<path d="M312.093 67.5538C312.093 67.5538 309.851 81.4602 310.61 84.9092C312.341 92.628 318.418 92.2969 322.219 90.8208C325.772 89.4412 329.317 84.5643 329.773 83.9228C329.805 83.8775 329.851 83.8437 329.904 83.8262C330.469 83.6675 333.98 82.5501 335.525 79.8392C337.215 76.8799 334.049 75.6176 334.049 75.6176" stroke="#202124" stroke-width="1.06068" stroke-miterlimit="10" stroke-linecap="round"/>
<path d="M320.675 74.6242C320.544 75.176 320.675 75.6727 320.93 75.7348C321.185 75.7969 321.53 75.4106 321.661 74.8656C321.792 74.3207 321.661 73.824 321.406 73.755C321.151 73.6861 320.806 74.0793 320.675 74.6242Z" fill="#202124"/>
<path d="M314.749 73.1826C314.618 73.7344 314.749 74.231 315.004 74.2931C315.259 74.3552 315.604 73.9689 315.735 73.424C315.866 72.879 315.735 72.3755 315.48 72.3134C315.225 72.2513 314.873 72.6307 314.749 73.1826Z" fill="#202124"/>
<path d="M324.35 72.21C324.024 71.6364 323.56 71.1535 323 70.8053C322.44 70.4571 321.801 70.2547 321.143 70.2164" stroke="#202124" stroke-width="1.06068" stroke-miterlimit="10" stroke-linecap="round"/>
<path d="M316.604 70.3199C316.061 70.0826 315.458 70.0162 314.877 70.1296C314.295 70.2429 313.762 70.5307 313.348 70.9546" stroke="#202124" stroke-width="1.06068" stroke-miterlimit="10" stroke-linecap="round"/>
<path d="M317.004 72.8307C317.017 73.7547 316.947 74.6781 316.797 75.5899C316.569 76.7419 315.672 76.9695 315.9 77.8593C316.128 78.7492 317.28 78.8388 317.28 78.8388" stroke="#202124" stroke-width="1.06068" stroke-miterlimit="10" stroke-linecap="round"/>
<path d="M318.48 82.4327C318.969 82.5882 319.485 82.6361 319.993 82.573C320.502 82.5099 320.991 82.3373 321.426 82.0671" stroke="#202124" stroke-width="1.06068" stroke-miterlimit="10" stroke-linecap="round"/>
<path d="M329.406 57.8414C329.406 57.8414 324.764 53.8268 320.328 53.8268C315.893 53.8268 312.299 56.3652 309.554 56.586C306.808 56.8067 304.911 54.2614 303.221 57.6414C301.531 61.0214 307.871 66.726 312.092 67.5676C316.314 68.4091 322.225 67.1468 323.915 66.933C325.534 66.822 327.159 66.822 328.778 66.933C328.778 66.933 327.509 70.9476 328.778 72.2168C330.048 73.4861 330.255 74.3276 330.255 75.1692C330.327 76.098 330.468 77.0202 330.675 77.9284L331.945 78.356L332.579 76.0314C334.292 74.2054 335.462 71.9387 335.959 69.4852C336.587 65.6844 333.421 61.8974 333.421 61.8974L329.406 57.8414Z" fill="#202124"/>
<path d="M311.623 65.8362C311.623 65.8362 318.845 67.2158 324.502 64.8636C330.158 62.5114 325.281 57.8414 325.281 57.8414" stroke="white" stroke-width="0.530341" stroke-miterlimit="10" stroke-linecap="round"/>
<path d="M326.475 57.4482C327.061 57.4482 331.938 61.1525 330.958 63.8841C329.979 66.6157 328.034 66.8157 328.034 66.8157" stroke="white" stroke-width="0.530341" stroke-miterlimit="10" stroke-linecap="round"/>
<path d="M325.674 141.238L319.577 138.024C318.009 137.937 316.451 137.734 314.914 137.417C313.493 137.01 298.91 135.616 298.91 135.616L298.689 139.065C298.689 139.065 315.321 141.3 318.763 141.707C322.205 142.114 325.254 143.735 325.861 144.749C326.468 145.763 327.689 146.777 327.082 149.578C326.475 152.378 322.419 156.476 322.419 156.476C322.225 156.186 332.172 155.469 332.076 154.406C331.862 152.296 330.738 146.129 330.738 146.129L325.674 141.238Z" fill="#F9AB00"/>
<path opacity="0.5" d="M325.674 141.238L319.577 138.024C318.009 137.937 316.451 137.734 314.914 137.417C313.493 137.01 298.91 135.616 298.91 135.616L298.689 139.065C298.689 139.065 315.321 141.3 318.763 141.707C322.205 142.114 325.254 143.735 325.861 144.749C326.468 145.763 327.689 146.777 327.082 149.578C326.475 152.378 322.419 156.476 322.419 156.476C322.26 156.165 332.193 155.462 332.076 154.406C331.752 151.716 330.738 146.129 330.738 146.129L325.674 141.238Z" fill="white"/>
<path d="M345.79 107.493C345.252 104.968 341.237 105.306 338.816 103.906C336.395 102.506 330.538 99.2639 330.538 99.2639L327.703 95.0009C327.192 93.8516 326.779 92.6608 326.469 91.4415L326.165 90.6L325.613 91.4829C325.965 95.263 326.303 104.941 326.303 104.941L327.517 111.025C327.517 111.025 332.187 131.098 333.401 135.561C334.615 140.024 334.615 143.059 333.808 144.48C333.001 145.901 333.27 146.55 333.27 146.55C333.27 146.55 336.436 144.101 336.243 141.673C335.988 138.817 346.169 109.204 345.79 107.493Z" fill="#F9AB00"/>
<path opacity="0.5" d="M345.79 107.493C345.514 104.927 341.237 105.306 338.816 103.906C336.395 102.506 330.538 99.2639 330.538 99.2639L327.703 95.0009C327.192 93.8516 326.779 92.6608 326.469 91.4415L326.165 90.6L325.613 91.4829C325.965 95.263 326.303 104.941 326.303 104.941L327.517 111.025C327.517 111.025 332.187 131.098 333.401 135.561C334.615 140.024 334.615 143.059 333.808 144.48C333.001 145.901 333.27 146.55 333.27 146.55C333.27 146.55 336.526 144.094 336.243 141.673C335.919 139.072 346.038 109.625 345.79 107.493Z" fill="white"/>
<path d="M328.069 104.962C328.069 104.962 326.8 93.5592 326.165 90.6C325.531 87.6407 325.958 85.9576 323.213 85.9576C320.468 85.9576 317.088 85.5299 317.695 87.013C318.302 88.4961 322.523 87.2199 323.213 87.8546C323.903 88.4892 323.42 89.9653 323.42 89.9653C323.42 89.9653 317.901 90.393 317.901 91.8692C317.901 93.3454 318.115 97.3876 319.171 97.7808C320.226 98.174 320.647 95.8838 320.647 95.8838C320.647 95.8838 320.861 100.712 321.916 102.43C322.588 103.491 323.367 104.48 324.241 105.382L328.069 104.962Z" fill="white" stroke="#202124" stroke-width="1.06068" stroke-miterlimit="10" stroke-linecap="round"/>
<path d="M324.267 108.128C324.267 108.128 323.633 134.34 324.688 138.541C325.743 142.742 331.448 148.467 334.4 145.722C337.353 142.976 335.884 137.065 335.884 134.319C335.884 131.574 329.124 111.301 329.124 109.818C329.023 108.586 328.737 107.377 328.275 106.231" stroke="#202124" stroke-width="1.06068" stroke-miterlimit="10" stroke-linecap="round"/>
<path d="M324.688 111.301L328.909 110.873" stroke="#202124" stroke-width="1.06068" stroke-miterlimit="10" stroke-linecap="round"/>
<path d="M297.689 124.407L298.503 101.085C298.503 101.085 297.489 100.478 297.082 102.706C296.675 104.934 296.475 109.404 296.475 109.404C296.475 109.404 291.605 106.362 292.826 108.183C294.047 110.004 296.068 114.067 296.068 114.067L288.535 121.565L291.984 122.986L297.689 124.407Z" fill="#F9AB00"/>
<path opacity="0.5" d="M297.689 124.407L298.503 101.085C298.503 101.085 297.489 100.478 297.082 102.706C296.675 104.934 296.475 109.404 296.475 109.404C296.475 109.404 291.605 106.362 292.826 108.183C294.047 110.004 296.068 114.067 296.068 114.067L288.535 121.565L291.984 122.986L297.689 124.407Z" fill="white"/>
<path d="M307.788 106.293C307.788 106.293 307.402 107.673 309.023 107.673C310.644 107.673 313.493 106.521 313.493 106.521L313.286 104.23C313.286 104.23 309.389 106.127 307.788 106.293Z" fill="#F9AB00"/>
<path opacity="0.5" d="M307.788 106.293C307.788 106.293 307.402 107.673 309.023 107.673C310.644 107.673 313.493 106.521 313.493 106.521L313.286 104.23C313.286 104.23 309.389 106.127 307.788 106.293Z" fill="white"/>
<path d="M314.748 90.869C314.748 90.869 312.637 103.285 313.906 106.045C315.175 108.804 317.072 108.155 318.549 106.893C320.025 105.631 321.929 102.458 321.929 102.458" stroke="#202124" stroke-width="1.06068" stroke-miterlimit="10" stroke-linecap="round"/>
<path d="M298.076 135.796L298.504 153.117C298.504 153.117 303.332 157.759 312.652 157.759C321.971 157.759 332.083 154.379 332.083 154.379V148.253" stroke="#202124" stroke-width="1.06068" stroke-miterlimit="10" stroke-linecap="round"/>
<path d="M326.592 93.3453C326.592 93.3453 330.393 97.1461 330.393 100.74C330.393 104.334 329.758 105.175 329.758 105.175" stroke="#202124" stroke-width="1.06068" stroke-miterlimit="10" stroke-linecap="round"/>
<path d="M329.965 98.6293C329.965 98.6293 335.669 102.002 338.836 103.906C342.002 105.81 345.81 105.803 345.81 107.493C345.81 109.183 336.939 137.906 336.939 137.906" stroke="#202124" stroke-width="1.06068" stroke-miterlimit="10" stroke-linecap="round"/>
<path d="M333.56 108.128L331.449 116.578" stroke="#202124" stroke-width="1.06068" stroke-miterlimit="10" stroke-linecap="round"/>
<path d="M298.131 113.087L294.717 105.927" stroke="#202124" stroke-width="0.530341" stroke-miterlimit="10" stroke-linecap="round"/>
<path d="M298.13 115.136L293.012 112.067" stroke="#202124" stroke-width="0.530341" stroke-miterlimit="10" stroke-linecap="round"/>
<path d="M314.831 131.153L313.811 136.272" stroke="#202124" stroke-width="0.530341" stroke-miterlimit="10" stroke-linecap="round"/>
<path d="M342.443 107.293C342.443 107.293 337.332 108.314 332.559 114.108" stroke="#202124" stroke-width="0.530341" stroke-miterlimit="10" stroke-linecap="round"/>
<path d="M339.037 106.983C339.037 106.983 337.657 106.638 332.904 110.728" stroke="#202124" stroke-width="0.530341" stroke-miterlimit="10" stroke-linecap="round"/>
<path d="M314.831 108.659L312.789 124.676L314.493 125.021L315.859 119.91" stroke="#202124" stroke-width="0.530341" stroke-miterlimit="10" stroke-linecap="round"/>
<path d="M316.197 150.585C310.058 155.703 301.539 155.358 301.539 155.358" stroke="#202124" stroke-width="0.530341" stroke-miterlimit="10" stroke-linecap="round"/>
<path d="M290.253 122.765C290.253 122.765 286.08 118.944 280.168 123.807" stroke="#202124" stroke-width="0.530341" stroke-miterlimit="10" stroke-linecap="round"/>
<path d="M314.342 93.98C314.342 93.98 312.652 94.4008 310.748 97.36C308.844 100.319 306.526 105.382 308.216 105.803C309.906 106.224 313.045 104.327 313.045 104.327" stroke="#202124" stroke-width="1.06068" stroke-miterlimit="10" stroke-linecap="round"/>
<path d="M320.887 105.175L322.998 107.072" stroke="#202124" stroke-width="1.06068" stroke-miterlimit="10" stroke-linecap="round"/>
<path d="M311.382 96.0908C311.382 96.0908 303.567 97.1462 300.4 97.36C297.234 97.5739 297.848 98.7396 296.813 99.4708C295.144 100.637 275.995 124.911 274.74 127.235C273.484 129.56 273.684 130.615 275.795 131.25C277.906 131.884 298.931 135.582 298.931 135.582L317.507 137.486L318.984 132.836C318.984 132.836 323.302 133.409 324.06 133.409" stroke="#202124" stroke-width="1.06068" stroke-miterlimit="10" stroke-linecap="round"/>
<path d="M316.872 131.126C312.772 129.936 308.809 128.318 305.049 126.297" stroke="#202124" stroke-width="1.06068" stroke-miterlimit="10" stroke-linecap="round"/>
<path d="M303.36 125.869C303.36 125.869 297.152 123.565 293.792 123.145C290.433 122.724 285.287 122.586 285.287 122.586" stroke="#202124" stroke-width="1.06068" stroke-miterlimit="10" stroke-linecap="round"/>
<path d="M297.654 123.124L298.289 106.438" stroke="#202124" stroke-width="1.06068" stroke-miterlimit="10" stroke-linecap="round"/>
<path d="M317.508 137.486C318.957 138.214 320.475 138.797 322.04 139.224" stroke="#202124" stroke-width="1.06068" stroke-miterlimit="10" stroke-linecap="round"/>
<path d="M41.1266 124.041L43.6167 110.432L59.3787 104.224C59.3787 104.224 60.1443 99.9951 60.9169 99.8088C61.6895 99.6226 62.4483 97.8843 62.4483 97.8843L62.0689 94.4008C62.0689 94.4008 63.5106 88.8824 70.7603 93.1798C70.7603 93.1798 68.5668 94.6422 68.9462 95.2492C69.3256 95.8563 68.5254 97.7877 69.4842 97.7877C70.443 97.7877 72.3814 99.0086 73.3609 99.9951C74.0465 100.732 74.6522 101.539 75.1682 102.402L83.3285 102.872C84.165 102.879 84.9971 102.992 85.8049 103.21C85.9428 99.2225 85.4531 96.1805 84.4874 93.8145C80.9763 85.2747 74.5749 82.2258 73.6575 77.9491C72.7401 73.6723 73.2022 73.2239 73.2022 73.2239C74.1351 72.2755 74.8181 71.1104 75.1901 69.8331C75.5621 68.5558 75.6114 67.2062 75.3337 65.9052C74.4232 61.3318 70.9121 58.1242 58.2543 57.5172C45.5965 56.9102 47.4313 65.5948 47.4313 65.5948L47.5831 66.2018C47.5831 66.2018 39.4986 68.961 41.03 79.1631C42.5614 89.3653 46.9761 93.8007 46.8243 97.0013C46.6726 100.202 41.9405 101.423 35.2288 108.728C28.517 116.033 27.1512 127.021 29.8966 134.188C31.2762 137.713 33.9734 140.652 37.3603 142.845L41.1266 124.041Z" fill="#202124"/>
<path d="M51.6942 125.387V128.463L45.8516 146.515C49.5024 147.481 53.3312 147.562 57.0194 146.75C59.1013 146.207 61.0912 145.359 62.9241 144.232L51.6942 125.387Z" fill="#202124"/>
<path d="M68.49 95.1388L69.1798 98.2429C69.1798 98.2429 71.2492 96.1735 75.2914 102.458C75.2914 102.458 83.6931 102.258 85.9833 103.403C85.9833 103.403 86.4592 103.541 88.0113 105.189C89.5633 106.838 95.399 112.087 95.399 112.087C95.399 112.087 102.89 119.04 103.635 119.578C104.38 120.116 107.174 122.786 109.264 123.717L114.865 110.963L117.362 104.651L118.742 99.457H119.183L119.28 95.2699L118.942 90.2758C118.997 90.0218 119.113 89.785 119.28 89.586C119.858 88.7844 120.303 87.8946 120.597 86.9509C120.597 86.4819 120.121 83.7089 120.121 83.7089C120.121 83.7089 119.887 83.0191 120.397 82.9363C120.908 82.8535 122.791 83.5088 123.025 84.8264L123.715 84.5918C124.287 83.227 124.999 81.9254 125.84 80.7083C126.957 79.2597 128.102 78.3491 128.813 78.8182C129.008 78.9527 129.148 79.1524 129.209 79.3813C129.27 79.6102 129.247 79.8533 129.144 80.0667L126.923 84.1503C126.923 84.1503 125.943 85.4679 127.157 85.9369C127.157 85.9369 129.786 87.6269 129.958 89.11C130.13 90.5931 129.179 91.8692 128.337 92.9591C127.495 94.049 126.012 96.4081 126.012 96.4081L124.288 97.9325L123.598 100.561L124.412 101.575L123.198 106.838L122.322 110.783L121.88 113.177L119.121 122.627L116.362 130.864C116.362 130.864 114.941 135.582 111.499 135.451C108.057 135.32 104.284 133.457 103.063 132.85C101.842 132.243 91.7776 126.987 91.7776 126.987L89.7082 126.007C89.9844 126.949 90.1032 127.931 90.06 128.911C90.0255 130.732 88.0665 134.747 87.4939 135.658L87.1559 142.776C87.0223 144.011 87.0455 145.258 87.2249 146.487C87.5284 148.343 89.0805 158.842 89.4185 160.152C89.4185 160.152 86.066 163.188 76.0778 164.629C66.0895 166.071 61.4126 163.732 61.4126 163.732L56.9634 161.118L62.4473 150.281C62.4473 150.281 63.8269 147.06 63.689 146.212C63.551 145.363 61.1919 141.707 61.1919 141.707L52.5349 126.297L52.1279 126.435L50.7828 130.933L45.9197 146.184L39.5184 165.222C39.5184 165.222 37.7663 170.051 37.042 171.479L35.0209 177.639C35.1332 178.739 35.405 179.817 35.828 180.84L30.7441 177.549L31.6478 172.721L32.7722 165.519L34.1518 157.69L35.3658 151.213L37.3041 142.576L37.9939 140.19L39.3735 133.443L41.8016 121.206L43.871 110.728L58.3568 104.968L59.2604 104.279C59.4614 102.945 59.951 101.672 60.6952 100.547C61.2117 99.8069 61.8267 99.1409 62.5232 98.5672C62.5232 98.5672 62.4542 97.6635 62.4059 96.8082C62.3576 95.9528 62.1369 94.3801 62.1369 94.3801C62.1369 94.3801 66.6137 96.3046 68.49 95.1388Z" fill="white"/>
<path d="M49.0859 67.4159C49.0859 67.4159 51.7693 61.4767 57.1359 61.4767C62.5025 61.4767 73.6152 72.0168 73.6152 72.0168" stroke="white" stroke-width="0.530341" stroke-miterlimit="10" stroke-linecap="round"/>
<path d="M51.3848 68.354C51.3848 68.354 54.6406 64.905 58.669 66.2432C62.6975 67.5814 63.27 72.3755 63.27 72.3755" stroke="white" stroke-width="0.530341" stroke-miterlimit="10" stroke-linecap="round"/>
<path d="M48.7002 68.9471C48.7002 68.9471 43.913 71.6305 43.5267 76.6177C43.1404 81.605 50.2315 87.5372 51.1903 94.249C52.1492 100.961 47.1688 102.485 39.1189 108.045C31.0689 113.605 32.414 126.056 34.1385 128.739" stroke="white" stroke-width="0.530341" stroke-miterlimit="10" stroke-linecap="round"/>
<path d="M35.0977 130.277C35.0977 130.277 36.2427 132.767 37.9672 133.533" stroke="white" stroke-width="0.530341" stroke-miterlimit="10" stroke-linecap="round"/>
<path d="M49.2803 81.9774C49.0536 82.4642 48.9519 82.9998 48.9844 83.5358C49.017 84.0718 49.1827 84.5912 49.4666 85.047C50.4254 86.7715 57.7442 95.394 57.1371 99.4224C56.5301 103.451 52.7293 105.934 52.7293 105.934" stroke="white" stroke-width="0.530341" stroke-miterlimit="10" stroke-linecap="round"/>
<path d="M52.9162 68.9471C52.9162 68.9471 48.5083 70.8648 48.7015 75.2726C48.8946 79.6804 49.8534 80.8324 49.8534 80.8324" stroke="white" stroke-width="0.530341" stroke-miterlimit="10" stroke-linecap="round"/>
<path d="M73.6152 83.5295C74.9848 86.6301 76.8641 89.4793 79.175 91.9589C82.624 95.4079 83.0034 100.395 83.0034 100.395" stroke="white" stroke-width="0.530341" stroke-miterlimit="10" stroke-linecap="round"/>
<path d="M77.6367 94.4353C77.6367 94.4353 79.3612 98.4637 79.3612 100.954" stroke="white" stroke-width="0.530341" stroke-miterlimit="10" stroke-linecap="round"/>
<path d="M68.0986 95.5044L62.6837 100.381C62.6837 100.381 62.1042 101.857 61.0144 104.224C59.9245 106.59 60.1038 111.121 60.1038 111.121L63.4424 117.764C63.4424 117.764 57.0204 110.397 56.6548 109.487C56.2892 108.576 49.5706 110.218 48.3013 110.763C47.0321 111.308 45.3904 112.398 45.756 114.032C46.1216 115.667 47.7564 117.84 47.0252 118.206C46.294 118.571 44.3005 117.661 44.3005 118.751C44.3005 119.841 46.6665 124.021 45.5766 125.469C44.4868 126.918 37.5819 150.357 37.5819 150.357C37.5819 150.357 41.9414 146.722 40.8515 148.178C39.7616 149.633 34.4985 161.435 34.4985 161.435L32.498 168.333L37.2232 143.818L41.2171 123.124L43.6176 110.432C45.9353 109.659 59.3795 104.224 59.3795 104.224C59.3795 104.224 60.4418 99.7536 62.4491 97.8842L62.0697 94.4008C62.0697 94.4008 65.7326 95.6838 68.0986 95.5044Z" fill="#F9AB00"/>
<path opacity="0.5" d="M68.0986 95.5044L62.6837 100.381C62.6837 100.381 62.1042 101.857 61.0144 104.224C59.9245 106.59 60.1038 111.121 60.1038 111.121L63.4424 117.764C63.4424 117.764 57.0204 110.397 56.6548 109.487C56.2892 108.576 49.5706 110.218 48.3013 110.763C47.0321 111.308 45.3904 112.398 45.756 114.032C46.1216 115.667 47.7564 117.84 47.0252 118.206C46.294 118.571 44.3005 117.661 44.3005 118.751C44.3005 119.841 46.6665 124.021 45.5766 125.469C44.4868 126.918 37.5819 150.357 37.5819 150.357C37.5819 150.357 41.9414 146.722 40.8515 148.178C39.7616 149.633 34.4985 161.435 34.4985 161.435L32.498 168.333L37.2232 143.818L41.2171 123.124L43.6176 110.432C45.9353 109.659 59.3795 104.224 59.3795 104.224C59.3795 104.224 59.6692 100.085 62.456 98.6361L62.0697 94.4008C62.0697 94.4008 65.7326 95.6838 68.0986 95.5044Z" fill="white"/>
<path d="M88.2539 120.02C88.2539 120.02 91.5236 114.577 91.8892 115.847C92.2547 117.116 90.9786 121.469 90.9786 121.469C90.9786 121.469 94.4276 120.199 94.0689 121.289C93.7102 122.379 92.979 122.924 93.1584 123.469C93.3377 124.014 105.147 130.188 106.603 130.912C108.058 131.636 111.507 127.463 113.142 128.732C114.777 130.001 113.142 134.354 109.872 134.361C106.603 134.368 97.1592 130.222 97.1592 130.222L89.7232 125.897" fill="#F9AB00"/>
<path opacity="0.5" d="M88.2539 120.02C88.2539 120.02 91.5236 114.577 91.8892 115.847C92.2547 117.116 90.9786 121.469 90.9786 121.469C90.9786 121.469 94.4276 120.199 94.0689 121.289C93.7102 122.379 92.979 122.924 93.1584 123.469C93.3377 124.014 105.147 130.188 106.603 130.912C108.058 131.636 111.507 127.463 113.142 128.732C114.777 130.001 113.142 134.354 109.872 134.361C106.603 134.368 97.1592 130.222 97.1592 130.222L89.7508 125.911" fill="white"/>
<path d="M68.6426 141.997C68.6426 141.997 89.8746 130.739 86.4256 134.913C82.9766 139.086 71.5466 143.818 68.6426 141.997Z" fill="#F9AB00"/>
<path opacity="0.5" d="M68.6426 141.997C68.6426 141.997 89.8746 130.739 86.4256 134.913C82.9766 139.086 71.5466 143.818 68.6426 141.997Z" fill="white"/>
<path d="M62.0684 94.4353C62.0684 94.4353 62.2201 97.3325 62.6823 100.381C63.1444 103.43 62.9858 103.43 65.8829 107.086C68.7801 110.742 71.829 113.798 72.2843 113.191" stroke="#202124" stroke-width="1.06068" stroke-miterlimit="10" stroke-linecap="round"/>
<path d="M72.4372 112.122C72.4372 112.122 72.7407 106.783 71.6784 103.279C70.6161 99.7743 69.0848 98.5465 69.0848 97.7601C69.0332 96.9408 68.9318 96.1253 68.7812 95.3182" stroke="#202124" stroke-width="1.06068" stroke-miterlimit="10" stroke-linecap="round"/>
<path d="M62.0692 98.8569C60.8508 99.954 59.9984 101.399 59.6273 102.996C59.1721 105.431 58.7168 108.328 58.7168 108.328L63.4419 117.785C63.8533 116.138 64.4673 114.549 65.2699 113.053C65.6674 112.315 66.1822 111.646 66.7943 111.073" stroke="#202124" stroke-width="1.06068" stroke-miterlimit="10" stroke-linecap="round"/>
<path d="M73.506 109.528C73.8396 109.445 74.1865 109.428 74.5264 109.48C74.8663 109.533 75.1925 109.652 75.4857 109.832C76.7067 110.445 79.1485 113.646 79.1485 113.646C79.1485 113.646 77.4723 105.713 74.5752 101.602C71.678 97.4911 69.6914 97.7877 69.6914 97.7877" stroke="#202124" stroke-width="1.06068" stroke-miterlimit="10" stroke-linecap="round"/>
<path d="M58.2553 104.803L43.6177 110.432C43.6177 110.432 38.2856 139.555 36.2989 147.329C34.3123 155.103 30.9668 177.066 30.9668 177.066L34.9262 177.825L36.3058 173.866" stroke="#202124" stroke-linecap="round" stroke-linejoin="round"/>
<path d="M37.0645 171.589C37.0645 171.589 37.975 170.21 40.4169 162.622C42.8588 155.034 49.3843 136.41 50.481 132.733C51.5778 129.056 52.4608 126.635 52.4608 126.635" stroke="#202124" stroke-width="1.06068" stroke-miterlimit="10" stroke-linecap="round"/>
<path d="M49.8672 122.158C49.8672 122.158 62.2146 144.232 63.2838 145.184C64.353 146.136 62.8285 148.688 62.5181 150.061" stroke="#202124" stroke-width="1.06068" stroke-miterlimit="10" stroke-linecap="round"/>
<path d="M61.1509 152.834L57.1914 161.07C57.1914 161.07 59.7851 165.036 70.7598 165.036C77.2909 165.056 83.7286 163.484 89.5154 160.456C89.5154 160.456 86.9218 146.736 87.0735 144.294C87.2253 141.852 87.5357 135.451 87.5357 135.451C87.5357 135.451 90.2949 131.312 89.9707 128.132C89.6465 124.952 88.2945 121.268 88.2945 120.661C88.2945 120.054 87.9909 113.494 87.9909 113.494" stroke="#202124" stroke-width="1.06068" stroke-miterlimit="10" stroke-linecap="round"/>
<path d="M70.7402 139.279L81.6667 132.574" stroke="#202124" stroke-width="0.530341" stroke-miterlimit="10" stroke-linecap="round"/>
<path d="M76.4922 137.175L82.4314 133.726" stroke="#202124" stroke-width="0.530341" stroke-miterlimit="10" stroke-linecap="round"/>
<path d="M109.189 123.862L106.961 129.318" stroke="#202124" stroke-width="0.530341" stroke-miterlimit="10" stroke-linecap="round"/>
<path d="M108.299 126.249L106.195 128.36" stroke="#202124" stroke-width="0.530341" stroke-miterlimit="10" stroke-linecap="round"/>
<path d="M46.0171 145.611C46.0171 145.611 42.3749 149.826 39.8848 151.551" stroke="#202124" stroke-width="0.530341" stroke-miterlimit="10" stroke-linecap="round"/>
<path d="M43.9134 146.757C43.9134 146.757 37.588 151.737 36.0566 152.889" stroke="#202124" stroke-width="0.530341" stroke-miterlimit="10" stroke-linecap="round"/>
<path d="M45.0371 111.301C46.9439 113.997 48.6721 116.815 50.2106 119.737" stroke="#202124" stroke-width="0.530341" stroke-miterlimit="10" stroke-linecap="round"/>
<path d="M50.8105 121.075L52.1488 123.372" stroke="#202124" stroke-width="0.530341" stroke-miterlimit="10" stroke-linecap="round"/>
<path d="M88.2949 120.661L89.9711 112.122" stroke="#202124" stroke-width="0.530341" stroke-miterlimit="10" stroke-linecap="round"/>
<path d="M88.9082 121.268L91.495 117.613" stroke="#202124" stroke-width="0.530341" stroke-miterlimit="10" stroke-linecap="round"/>
<path d="M52.4594 126.607L45.1406 122.641" stroke="#202124" stroke-width="0.530341" stroke-miterlimit="10" stroke-linecap="round"/>
<path d="M72.1328 113.95C72.1328 113.95 74.892 119.468 75.7956 123.407" stroke="#202124" stroke-width="0.530341" stroke-miterlimit="10" stroke-linecap="round"/>
<path d="M117.418 104.341C118.148 104.287 118.881 104.381 119.573 104.619C120.266 104.856 120.903 105.23 121.446 105.72" stroke="#202124" stroke-width="0.530341" stroke-miterlimit="10" stroke-linecap="round"/>
<path d="M33.6152 173.279L35.5053 173.983" stroke="#202124" stroke-width="0.530341" stroke-miterlimit="10" stroke-linecap="round"/>
<path d="M30.9169 177.342C30.9406 179.965 30.8024 182.586 30.503 185.192C30.0477 188.4 30.1995 195.718 30.8065 198.002C31.4135 200.285 31.7239 200.761 32.331 199.381C32.938 198.002 34.7729 189.931 34.7729 189.931C34.7729 189.931 35.0764 195.263 36.4491 194.808C37.8218 194.353 37.063 191.759 37.063 189.469C37.063 187.179 37.2147 186.42 37.063 184.592C36.9112 182.764 34.8763 178.246 34.8763 178.246" fill="white"/>
<path d="M30.9169 177.342C30.9406 179.965 30.8024 182.586 30.503 185.192C30.0477 188.4 30.1995 195.718 30.8065 198.002C31.4135 200.285 31.7239 200.761 32.331 199.381C32.938 198.002 34.7729 189.931 34.7729 189.931C34.7729 189.931 35.0764 195.263 36.4491 194.808C37.8218 194.353 37.063 191.759 37.063 189.469C37.063 187.179 37.2147 186.42 37.063 184.592C36.9112 182.764 34.8763 178.246 34.8763 178.246" stroke="#202124" stroke-miterlimit="10" stroke-linecap="round"/>
<path d="M119.199 99.3397C119.13 97.9909 119.13 96.6394 119.199 95.2906C119.323 94.0214 118.82 92.1244 118.944 90.462C119.068 88.7996 120.716 88.1857 120.461 86.0335C120.206 83.8813 119.702 83.6261 120.082 83.1225C120.461 82.619 122.841 83.3709 122.993 84.7643C123.128 86.1982 123.128 87.6416 122.993 89.0755C122.869 89.4549 123.752 91.8347 123.248 92.8694C122.96 93.4299 122.746 94.0259 122.613 94.6422" stroke="#202124" stroke-width="0.880843" stroke-miterlimit="10" stroke-linecap="round"/>
<path d="M123.502 84.6538C123.502 84.6538 126.413 78.8319 128.062 78.7009C129.71 78.5698 129.2 80.0805 128.689 80.853C128.179 81.6256 126.537 84.3986 126.413 85.5437C126.289 86.6888 124.764 90.4758 124.764 90.4758" stroke="#202124" stroke-width="0.880843" stroke-miterlimit="10" stroke-linecap="round"/>
<path d="M126.433 85.5437C126.433 85.5437 130.869 88.1994 129.882 90.3723C128.896 92.5452 128.358 93.4143 127.599 93.1315C126.926 92.7877 126.325 92.3196 125.826 91.7519" stroke="#202124" stroke-width="0.880843" stroke-miterlimit="10" stroke-linecap="round"/>
<path d="M128.062 93.1384C128.062 93.1384 126.917 95.0354 126.034 96.1804C125.526 96.8418 124.924 97.4251 124.247 97.9118L123.709 99.7812" stroke="#202124" stroke-width="0.880843" stroke-miterlimit="10" stroke-linecap="round"/>
<path d="M74.8789 102.361C74.8789 102.361 85.3983 102.209 86.771 103.885C88.1437 105.562 104.768 120.813 106.775 122.186C108.783 123.559 109.217 123.862 109.217 123.862C109.217 123.862 117.446 105.238 117.446 104.341C117.446 103.444 118.826 99.3121 118.826 99.3121C118.826 99.3121 121.42 99.6156 122.034 99.6156C122.648 99.6156 124.317 101.602 124.317 101.602C124.317 101.602 122.034 110.901 122.034 111.949C122.034 112.998 117.764 127.504 115.777 131.953C113.79 136.403 111.052 135.761 106.63 134.388C102.209 133.016 90.1649 126.159 90.1649 126.159" stroke="#202124" stroke-width="1.06068" stroke-miterlimit="10" stroke-linecap="round"/>
<path d="M57.1918 161.07C57.1918 161.07 51.0871 176.342 49.4384 186.737C47.7898 197.133 48.4934 221.441 48.0174 224.042C47.5415 226.642 40.9332 238.914 40.9332 244.818C40.9332 250.723 37.3945 281.178 37.3945 281.178L39.7536 282.592C39.7536 282.592 48.0312 257.069 51.0871 250.482C54.1429 243.894 58.4058 228.291 59.5854 225.221C60.7649 222.152 69.0356 197.595 69.5047 194.525C69.9738 191.456 72.8088 183.902 72.8088 183.902C72.8088 183.902 78.948 221.441 80.1276 229.236C81.3072 237.031 89.5709 279.288 89.5709 279.288C90.1137 279.42 90.6682 279.499 91.2265 279.522C91.9163 279.522 92.1715 278.343 92.1715 278.343C92.1715 278.343 95.4756 248.357 94.5306 240.328C93.5856 232.299 90.7574 222.393 90.7574 219.551C90.7574 216.709 95.0066 192.166 95.0066 183.681C95.0066 175.197 89.4882 160.47 89.4882 160.47C89.4882 160.47 69.9048 170.348 57.1918 161.07Z" fill="#202124"/>
<path d="M90.6679 221.11C90.6679 221.11 88.564 230.119 85.6875 234.906" stroke="white" stroke-width="0.530341" stroke-miterlimit="10" stroke-linecap="round"/>
<path d="M90.0954 230.312C90.0954 230.312 88.3709 236.824 84.9219 239.893" stroke="white" stroke-width="0.530341" stroke-miterlimit="10" stroke-linecap="round"/>
<path d="M49.2793 227.435C49.2793 227.435 50.6175 235.292 52.1489 238.548" stroke="white" stroke-width="0.530341" stroke-miterlimit="10" stroke-linecap="round"/>
<path d="M48.8945 232.036C48.8945 232.036 50.0465 237.596 52.1504 240.852" stroke="white" stroke-width="0.530341" stroke-miterlimit="10" stroke-linecap="round"/>
<path d="M73.4238 183.937L81.0875 177.611" stroke="white" stroke-width="0.530341" stroke-miterlimit="10" stroke-linecap="round"/>
<path d="M77.0645 181.253L86.0732 177.225" stroke="white" stroke-width="0.530341" stroke-miterlimit="10" stroke-linecap="round"/>
<path d="M57.3223 170.52C57.3223 170.52 63.2683 174.349 66.7173 177.611" stroke="white" stroke-width="0.530341" stroke-miterlimit="10" stroke-linecap="round"/>
<path d="M37.6432 281.157C37.6432 281.157 28.6758 288.745 28.6758 292.511C28.6758 296.277 32.2145 296.05 35.9946 292.511C39.7747 288.972 39.9678 281.681 39.9678 281.681L37.6432 281.157Z" fill="white" stroke="#202124" stroke-width="1.06068" stroke-miterlimit="10" stroke-linecap="round"/>
<path d="M89.5703 279.288C89.5703 279.288 92.6399 286.841 95.951 290.152C99.262 293.463 101.145 294.636 101.145 291.09C101.145 287.545 99.0206 283.537 92.1778 278.343C92.1709 278.343 94.0609 279.757 89.5703 279.288Z" fill="white" stroke="#202124" stroke-width="1.06068" stroke-miterlimit="10" stroke-linecap="round"/>
<path d="M57.8957 70.2164C57.2818 69.9888 56.7024 69.7129 56.1023 69.4576C55.5021 69.2024 54.4054 69.0644 53.9915 70.9476C53.3776 73.7068 57.6474 75.9831 56.2747 78.2664C55.4207 79.6554 54.1373 80.7282 52.6188 81.3222C52.3716 81.4072 52.114 81.4582 51.8531 81.4739C50.6322 81.6257 48.6524 81.4739 49.2595 83.6054C49.8665 85.7369 51.8531 87.5718 53.074 87.5718H54.295C54.295 87.5718 55.6746 91.7105 60.8481 93.9731C66.0216 96.2356 69.5396 96.1115 70.7605 93.2143C71.9814 90.3172 72.8989 87.8753 72.8989 84.0607C72.8989 80.2461 71.5193 73.8448 71.5193 73.8448C71.5193 73.8448 70.2983 75.5279 65.5732 73.3895C62.4484 71.9754 59.5237 70.8303 57.8957 70.2164Z" fill="white"/>
<mask id="mask1_300_4006" style="mask-type:luminance" maskUnits="userSpaceOnUse" x="49" y="69" width="24" height="27">
<path d="M57.8957 70.2164C57.2818 69.9888 56.7024 69.7129 56.1023 69.4576C55.5021 69.2024 54.4054 69.0644 53.9915 70.9476C53.3776 73.7068 57.6474 75.9831 56.2747 78.2664C55.4207 79.6554 54.1373 80.7282 52.6188 81.3222C52.3716 81.4072 52.114 81.4582 51.8531 81.4739C50.6322 81.6257 48.6524 81.4739 49.2595 83.6054C49.8665 85.7369 51.8531 87.5718 53.074 87.5718H54.295C54.295 87.5718 55.6746 91.7105 60.8481 93.9731C66.0216 96.2356 69.5396 96.1115 70.7605 93.2143C71.9814 90.3172 72.8989 87.8753 72.8989 84.0607C72.8989 80.2461 71.5193 73.8448 71.5193 73.8448C71.5193 73.8448 70.2983 75.5279 65.5732 73.3895C62.4484 71.9754 59.5237 70.8303 57.8957 70.2164Z" fill="white"/>
</mask>
<g mask="url(#mask1_300_4006)">
<g style="mix-blend-mode:multiply" opacity="0.5">
<path d="M65.5792 73.3895C65.5792 73.3895 58.288 72.9825 57.1981 73.1618C56.1082 73.3412 57.3775 76.6108 57.0188 79.8805C56.6601 83.1501 56.8325 88.4202 58.288 90.055C60.0055 91.7407 61.8255 93.3187 63.7374 94.7801C63.7374 94.7801 58.1432 93.8765 56.1082 91.5105C54.0733 89.1445 53.7491 87.8753 53.7491 87.8753C53.7491 87.8753 49.024 85.1161 48.6584 82.9708C48.2928 80.8255 51.4176 81.9637 52.9145 80.9014C53.756 80.322 57.2395 79.2321 56.3635 76.328C55.4874 73.424 54.0733 72.879 54.0182 70.9338C53.9768 69.5542 55.1908 69.1541 55.9358 69.0299C56.2716 68.9734 56.6168 69.0241 56.9222 69.1748L65.5792 73.3895Z" fill="#F9AB00"/>
</g>
</g>
<path d="M57.8957 70.2164C57.2818 69.9888 56.7024 69.7129 56.1023 69.4576C55.5021 69.2024 54.4054 69.0644 53.9915 70.9476C53.3776 73.7068 57.6474 75.9831 56.2747 78.2664C55.4207 79.6554 54.1373 80.7282 52.6188 81.3222C52.3716 81.4071 52.114 81.4582 51.8531 81.4739C50.6322 81.6257 48.6524 81.4739 49.2595 83.6054C49.8665 85.7369 51.8531 87.5718 53.074 87.5718H54.295C54.295 87.5718 55.6746 91.7105 60.8481 93.9731C66.0216 96.2356 69.5395 96.1115 70.7605 93.2143C71.9814 90.3171 72.8989 87.8753 72.8989 84.0607C72.8989 80.2461 71.5193 73.8448 71.5193 73.8448C71.5193 73.8448 70.2983 75.5279 65.5732 73.3895C62.4484 71.9754 59.5237 70.8303 57.8957 70.2164Z" stroke="#202124" stroke-width="1.06068" stroke-miterlimit="10" stroke-linecap="round"/>
<path d="M63.2825 79.2528C63.3791 79.8322 63.2204 80.3427 62.9238 80.3909C62.6272 80.4392 62.3237 80.0047 62.234 79.4252C62.1443 78.8458 62.303 78.3284 62.5927 78.2802C62.8824 78.2319 63.1859 78.7009 63.2825 79.2528Z" fill="#202124"/>
<path d="M69.5937 78.1974C69.6834 78.7768 69.5247 79.2873 69.235 79.3356C68.9453 79.3839 68.6349 78.9493 68.5452 78.3699C68.4555 77.7904 68.6073 77.28 68.897 77.2317C69.1867 77.1834 69.4971 77.618 69.5937 78.1974Z" fill="#202124"/>
<path d="M59.627 76.4384C60.0129 75.8647 60.5365 75.3968 61.1498 75.0775C61.7631 74.7581 62.4467 74.5976 63.138 74.6105" stroke="#202124" stroke-width="1.06068" stroke-miterlimit="10" stroke-linecap="round"/>
<path d="M67.8633 75.0657C68.4492 74.8609 69.0836 74.8389 69.6822 75.0028C70.2809 75.1666 70.8157 75.5085 71.2157 75.9831" stroke="#202124" stroke-width="1.06068" stroke-miterlimit="10" stroke-linecap="round"/>
<path d="M67.2559 77.6593C67.1716 78.6232 67.1716 79.5926 67.2559 80.5565C67.4077 81.7774 68.3182 82.0809 68.0147 82.9983C67.7112 83.9158 66.4902 83.9089 66.4902 83.9089" stroke="#202124" stroke-width="1.06068" stroke-miterlimit="10" stroke-linecap="round"/>
<path d="M64.9669 87.5718C64.4445 87.6952 63.9015 87.7042 63.3753 87.5983C62.849 87.4923 62.3519 87.2739 61.918 86.9579" stroke="#202124" stroke-width="1.06068" stroke-miterlimit="10" stroke-linecap="round"/>
</svg>
